<?xml version="1.0" encoding="utf-8" standalone="no"?>
<!DOCTYPE svg PUBLIC "-//W3C//DTD SVG 1.1//EN"
  "http://www.w3.org/Graphics/SVG/1.1/DTD/svg11.dtd">
<svg height="345.6pt" version="1.1" viewBox="0 0 460.8 345.6" width="460.8pt" xmlns="http://www.w3.org/2000/svg" xmlns:xlink="http://www.w3.org/1999/xlink">
 <metadata>
  <rdf:RDF xmlns:cc="http://creativecommons.org/ns#" xmlns:dc="http://purl.org/dc/elements/1.1/" xmlns:rdf="http://www.w3.org/1999/02/22-rdf-syntax-ns#">
   <cc:Work>
    <dc:type rdf:resource="http://purl.org/dc/dcmitype/StillImage"/>
    <dc:date>2021-11-18T10:43:38.846284</dc:date>
    <dc:format>image/svg+xml</dc:format>
    <dc:creator>
     <cc:Agent>
      <dc:title>Matplotlib v3.4.3, https://matplotlib.org/</dc:title>
     </cc:Agent>
    </dc:creator>
   </cc:Work>
  </rdf:RDF>
 </metadata>
 <defs>
  <style type="text/css">*{stroke-linecap:butt;stroke-linejoin:round;}</style>
 </defs>
 <g id="figure_1">
  <g id="patch_1">
   <path d="M 0 345.6 
L 460.8 345.6 
L 460.8 0 
L 0 0 
z
" style="fill:#ffffff;"/>
  </g>
  <g id="axes_1">
   <g id="patch_2">
    <path d="M 57.6 307.584 
L 414.72 307.584 
L 414.72 41.472 
L 57.6 41.472 
z
" style="fill:#ffffff;"/>
   </g>
   <g id="patch_3">
    <path clip-path="url(#pf09f18502e)" d="M 73.832727 54521.848161 
L 120.211948 54521.848161 
L 120.211948 90.534621 
L 73.832727 90.534621 
z
" style="fill:#e182fd;opacity:0.5;"/>
   </g>
   <g id="patch_4">
    <path clip-path="url(#pf09f18502e)" d="M 259.34961 54521.848161 
L 305.728831 54521.848161 
L 305.728831 109.899252 
L 259.34961 109.899252 
z
" style="fill:#e182fd;opacity:0.5;"/>
   </g>
   <g id="patch_5">
    <path clip-path="url(#pf09f18502e)" d="M 120.211948 54521.848161 
L 166.591169 54521.848161 
L 166.591169 182.195385 
L 120.211948 182.195385 
z
" style="fill:#6e98f8;opacity:0.5;"/>
   </g>
   <g id="patch_6">
    <path clip-path="url(#pf09f18502e)" d="M 305.728831 54521.848161 
L 352.108052 54521.848161 
L 352.108052 182.195385 
L 305.728831 182.195385 
z
" style="fill:#6e98f8;opacity:0.5;"/>
   </g>
   <g id="patch_7">
    <path clip-path="url(#pf09f18502e)" d="M 166.591169 54521.848161 
L 212.97039 54521.848161 
L 212.97039 286.461336 
L 166.591169 286.461336 
z
" style="fill:#4ba89b;opacity:0.5;"/>
   </g>
   <g id="patch_8">
    <path clip-path="url(#pf09f18502e)" d="M 352.108052 54521.848161 
L 398.487273 54521.848161 
L 398.487273 287.546807 
L 352.108052 287.546807 
z
" style="fill:#4ba89b;opacity:0.5;"/>
   </g>
   <g id="matplotlib.axis_1">
    <g id="xtick_1">
     <g id="line2d_1">
      <defs>
       <path d="M 0 0 
L 0 3.5 
" id="m78dcdb67e5" style="stroke:#000000;stroke-width:0.8;"/>
      </defs>
      <g>
       <use style="stroke:#000000;stroke-width:0.8;" x="120.211948" xlink:href="#m78dcdb67e5" y="307.584"/>
      </g>
     </g>
     <g id="text_1">
      <!-- reactor MB -->
      <g transform="translate(92.970542 322.182437)scale(0.1 -0.1)">
       <defs>
        <path d="M 2631 2963 
Q 2534 3019 2420 3045 
Q 2306 3072 2169 3072 
Q 1681 3072 1420 2755 
Q 1159 2438 1159 1844 
L 1159 0 
L 581 0 
L 581 3500 
L 1159 3500 
L 1159 2956 
Q 1341 3275 1631 3429 
Q 1922 3584 2338 3584 
Q 2397 3584 2469 3576 
Q 2541 3569 2628 3553 
L 2631 2963 
z
" id="DejaVuSans-72" transform="scale(0.015625)"/>
        <path d="M 3597 1894 
L 3597 1613 
L 953 1613 
Q 991 1019 1311 708 
Q 1631 397 2203 397 
Q 2534 397 2845 478 
Q 3156 559 3463 722 
L 3463 178 
Q 3153 47 2828 -22 
Q 2503 -91 2169 -91 
Q 1331 -91 842 396 
Q 353 884 353 1716 
Q 353 2575 817 3079 
Q 1281 3584 2069 3584 
Q 2775 3584 3186 3129 
Q 3597 2675 3597 1894 
z
M 3022 2063 
Q 3016 2534 2758 2815 
Q 2500 3097 2075 3097 
Q 1594 3097 1305 2825 
Q 1016 2553 972 2059 
L 3022 2063 
z
" id="DejaVuSans-65" transform="scale(0.015625)"/>
        <path d="M 2194 1759 
Q 1497 1759 1228 1600 
Q 959 1441 959 1056 
Q 959 750 1161 570 
Q 1363 391 1709 391 
Q 2188 391 2477 730 
Q 2766 1069 2766 1631 
L 2766 1759 
L 2194 1759 
z
M 3341 1997 
L 3341 0 
L 2766 0 
L 2766 531 
Q 2569 213 2275 61 
Q 1981 -91 1556 -91 
Q 1019 -91 701 211 
Q 384 513 384 1019 
Q 384 1609 779 1909 
Q 1175 2209 1959 2209 
L 2766 2209 
L 2766 2266 
Q 2766 2663 2505 2880 
Q 2244 3097 1772 3097 
Q 1472 3097 1187 3025 
Q 903 2953 641 2809 
L 641 3341 
Q 956 3463 1253 3523 
Q 1550 3584 1831 3584 
Q 2591 3584 2966 3190 
Q 3341 2797 3341 1997 
z
" id="DejaVuSans-61" transform="scale(0.015625)"/>
        <path d="M 3122 3366 
L 3122 2828 
Q 2878 2963 2633 3030 
Q 2388 3097 2138 3097 
Q 1578 3097 1268 2742 
Q 959 2388 959 1747 
Q 959 1106 1268 751 
Q 1578 397 2138 397 
Q 2388 397 2633 464 
Q 2878 531 3122 666 
L 3122 134 
Q 2881 22 2623 -34 
Q 2366 -91 2075 -91 
Q 1284 -91 818 406 
Q 353 903 353 1747 
Q 353 2603 823 3093 
Q 1294 3584 2113 3584 
Q 2378 3584 2631 3529 
Q 2884 3475 3122 3366 
z
" id="DejaVuSans-63" transform="scale(0.015625)"/>
        <path d="M 1172 4494 
L 1172 3500 
L 2356 3500 
L 2356 3053 
L 1172 3053 
L 1172 1153 
Q 1172 725 1289 603 
Q 1406 481 1766 481 
L 2356 481 
L 2356 0 
L 1766 0 
Q 1100 0 847 248 
Q 594 497 594 1153 
L 594 3053 
L 172 3053 
L 172 3500 
L 594 3500 
L 594 4494 
L 1172 4494 
z
" id="DejaVuSans-74" transform="scale(0.015625)"/>
        <path d="M 1959 3097 
Q 1497 3097 1228 2736 
Q 959 2375 959 1747 
Q 959 1119 1226 758 
Q 1494 397 1959 397 
Q 2419 397 2687 759 
Q 2956 1122 2956 1747 
Q 2956 2369 2687 2733 
Q 2419 3097 1959 3097 
z
M 1959 3584 
Q 2709 3584 3137 3096 
Q 3566 2609 3566 1747 
Q 3566 888 3137 398 
Q 2709 -91 1959 -91 
Q 1206 -91 779 398 
Q 353 888 353 1747 
Q 353 2609 779 3096 
Q 1206 3584 1959 3584 
z
" id="DejaVuSans-6f" transform="scale(0.015625)"/>
        <path id="DejaVuSans-20" transform="scale(0.015625)"/>
        <path d="M 628 4666 
L 1569 4666 
L 2759 1491 
L 3956 4666 
L 4897 4666 
L 4897 0 
L 4281 0 
L 4281 4097 
L 3078 897 
L 2444 897 
L 1241 4097 
L 1241 0 
L 628 0 
L 628 4666 
z
" id="DejaVuSans-4d" transform="scale(0.015625)"/>
        <path d="M 1259 2228 
L 1259 519 
L 2272 519 
Q 2781 519 3026 730 
Q 3272 941 3272 1375 
Q 3272 1813 3026 2020 
Q 2781 2228 2272 2228 
L 1259 2228 
z
M 1259 4147 
L 1259 2741 
L 2194 2741 
Q 2656 2741 2882 2914 
Q 3109 3088 3109 3444 
Q 3109 3797 2882 3972 
Q 2656 4147 2194 4147 
L 1259 4147 
z
M 628 4666 
L 2241 4666 
Q 2963 4666 3353 4366 
Q 3744 4066 3744 3513 
Q 3744 3084 3544 2831 
Q 3344 2578 2956 2516 
Q 3422 2416 3680 2098 
Q 3938 1781 3938 1306 
Q 3938 681 3513 340 
Q 3088 0 2303 0 
L 628 0 
L 628 4666 
z
" id="DejaVuSans-42" transform="scale(0.015625)"/>
       </defs>
       <use xlink:href="#DejaVuSans-72"/>
       <use x="38.863281" xlink:href="#DejaVuSans-65"/>
       <use x="100.386719" xlink:href="#DejaVuSans-61"/>
       <use x="161.666016" xlink:href="#DejaVuSans-63"/>
       <use x="216.646484" xlink:href="#DejaVuSans-74"/>
       <use x="255.855469" xlink:href="#DejaVuSans-6f"/>
       <use x="317.037109" xlink:href="#DejaVuSans-72"/>
       <use x="358.150391" xlink:href="#DejaVuSans-20"/>
       <use x="389.9375" xlink:href="#DejaVuSans-4d"/>
       <use x="476.216797" xlink:href="#DejaVuSans-42"/>
      </g>
     </g>
    </g>
    <g id="xtick_2">
     <g id="line2d_2">
      <g>
       <use style="stroke:#000000;stroke-width:0.8;" x="305.728831" xlink:href="#m78dcdb67e5" y="307.584"/>
      </g>
     </g>
     <g id="text_2">
      <!-- separator MB -->
      <g transform="translate(272.281175 322.182437)scale(0.1 -0.1)">
       <defs>
        <path d="M 2834 3397 
L 2834 2853 
Q 2591 2978 2328 3040 
Q 2066 3103 1784 3103 
Q 1356 3103 1142 2972 
Q 928 2841 928 2578 
Q 928 2378 1081 2264 
Q 1234 2150 1697 2047 
L 1894 2003 
Q 2506 1872 2764 1633 
Q 3022 1394 3022 966 
Q 3022 478 2636 193 
Q 2250 -91 1575 -91 
Q 1294 -91 989 -36 
Q 684 19 347 128 
L 347 722 
Q 666 556 975 473 
Q 1284 391 1588 391 
Q 1994 391 2212 530 
Q 2431 669 2431 922 
Q 2431 1156 2273 1281 
Q 2116 1406 1581 1522 
L 1381 1569 
Q 847 1681 609 1914 
Q 372 2147 372 2553 
Q 372 3047 722 3315 
Q 1072 3584 1716 3584 
Q 2034 3584 2315 3537 
Q 2597 3491 2834 3397 
z
" id="DejaVuSans-73" transform="scale(0.015625)"/>
        <path d="M 1159 525 
L 1159 -1331 
L 581 -1331 
L 581 3500 
L 1159 3500 
L 1159 2969 
Q 1341 3281 1617 3432 
Q 1894 3584 2278 3584 
Q 2916 3584 3314 3078 
Q 3713 2572 3713 1747 
Q 3713 922 3314 415 
Q 2916 -91 2278 -91 
Q 1894 -91 1617 61 
Q 1341 213 1159 525 
z
M 3116 1747 
Q 3116 2381 2855 2742 
Q 2594 3103 2138 3103 
Q 1681 3103 1420 2742 
Q 1159 2381 1159 1747 
Q 1159 1113 1420 752 
Q 1681 391 2138 391 
Q 2594 391 2855 752 
Q 3116 1113 3116 1747 
z
" id="DejaVuSans-70" transform="scale(0.015625)"/>
       </defs>
       <use xlink:href="#DejaVuSans-73"/>
       <use x="52.099609" xlink:href="#DejaVuSans-65"/>
       <use x="113.623047" xlink:href="#DejaVuSans-70"/>
       <use x="177.099609" xlink:href="#DejaVuSans-61"/>
       <use x="238.378906" xlink:href="#DejaVuSans-72"/>
       <use x="279.492188" xlink:href="#DejaVuSans-61"/>
       <use x="340.771484" xlink:href="#DejaVuSans-74"/>
       <use x="379.980469" xlink:href="#DejaVuSans-6f"/>
       <use x="441.162109" xlink:href="#DejaVuSans-72"/>
       <use x="482.275391" xlink:href="#DejaVuSans-20"/>
       <use x="514.0625" xlink:href="#DejaVuSans-4d"/>
       <use x="600.341797" xlink:href="#DejaVuSans-42"/>
      </g>
     </g>
    </g>
   </g>
   <g id="matplotlib.axis_2">
    <g id="ytick_1">
     <g id="line2d_3">
      <defs>
       <path d="M 0 0 
L -3.5 0 
" id="ma957827279" style="stroke:#000000;stroke-width:0.8;"/>
      </defs>
      <g>
       <use style="stroke:#000000;stroke-width:0.8;" x="57.6" xlink:href="#ma957827279" y="259.175801"/>
      </g>
     </g>
     <g id="text_3">
      <!-- $\mathdefault{10^{-3}}$ -->
      <g transform="translate(27.1 262.97502)scale(0.1 -0.1)">
       <defs>
        <path d="M 794 531 
L 1825 531 
L 1825 4091 
L 703 3866 
L 703 4441 
L 1819 4666 
L 2450 4666 
L 2450 531 
L 3481 531 
L 3481 0 
L 794 0 
L 794 531 
z
" id="DejaVuSans-31" transform="scale(0.015625)"/>
        <path d="M 2034 4250 
Q 1547 4250 1301 3770 
Q 1056 3291 1056 2328 
Q 1056 1369 1301 889 
Q 1547 409 2034 409 
Q 2525 409 2770 889 
Q 3016 1369 3016 2328 
Q 3016 3291 2770 3770 
Q 2525 4250 2034 4250 
z
M 2034 4750 
Q 2819 4750 3233 4129 
Q 3647 3509 3647 2328 
Q 3647 1150 3233 529 
Q 2819 -91 2034 -91 
Q 1250 -91 836 529 
Q 422 1150 422 2328 
Q 422 3509 836 4129 
Q 1250 4750 2034 4750 
z
" id="DejaVuSans-30" transform="scale(0.015625)"/>
        <path d="M 678 2272 
L 4684 2272 
L 4684 1741 
L 678 1741 
L 678 2272 
z
" id="DejaVuSans-2212" transform="scale(0.015625)"/>
        <path d="M 2597 2516 
Q 3050 2419 3304 2112 
Q 3559 1806 3559 1356 
Q 3559 666 3084 287 
Q 2609 -91 1734 -91 
Q 1441 -91 1130 -33 
Q 819 25 488 141 
L 488 750 
Q 750 597 1062 519 
Q 1375 441 1716 441 
Q 2309 441 2620 675 
Q 2931 909 2931 1356 
Q 2931 1769 2642 2001 
Q 2353 2234 1838 2234 
L 1294 2234 
L 1294 2753 
L 1863 2753 
Q 2328 2753 2575 2939 
Q 2822 3125 2822 3475 
Q 2822 3834 2567 4026 
Q 2313 4219 1838 4219 
Q 1578 4219 1281 4162 
Q 984 4106 628 3988 
L 628 4550 
Q 988 4650 1302 4700 
Q 1616 4750 1894 4750 
Q 2613 4750 3031 4423 
Q 3450 4097 3450 3541 
Q 3450 3153 3228 2886 
Q 3006 2619 2597 2516 
z
" id="DejaVuSans-33" transform="scale(0.015625)"/>
       </defs>
       <use transform="translate(0 0.765625)" xlink:href="#DejaVuSans-31"/>
       <use transform="translate(63.623047 0.765625)" xlink:href="#DejaVuSans-30"/>
       <use transform="translate(128.203125 39.046875)scale(0.7)" xlink:href="#DejaVuSans-2212"/>
       <use transform="translate(186.855469 39.046875)scale(0.7)" xlink:href="#DejaVuSans-33"/>
      </g>
     </g>
    </g>
    <g id="ytick_2">
     <g id="line2d_4">
      <g>
       <use style="stroke:#000000;stroke-width:0.8;" x="57.6" xlink:href="#ma957827279" y="204.749851"/>
      </g>
     </g>
     <g id="text_4">
      <!-- $\mathdefault{10^{-2}}$ -->
      <g transform="translate(27.1 208.549069)scale(0.1 -0.1)">
       <defs>
        <path d="M 1228 531 
L 3431 531 
L 3431 0 
L 469 0 
L 469 531 
Q 828 903 1448 1529 
Q 2069 2156 2228 2338 
Q 2531 2678 2651 2914 
Q 2772 3150 2772 3378 
Q 2772 3750 2511 3984 
Q 2250 4219 1831 4219 
Q 1534 4219 1204 4116 
Q 875 4013 500 3803 
L 500 4441 
Q 881 4594 1212 4672 
Q 1544 4750 1819 4750 
Q 2544 4750 2975 4387 
Q 3406 4025 3406 3419 
Q 3406 3131 3298 2873 
Q 3191 2616 2906 2266 
Q 2828 2175 2409 1742 
Q 1991 1309 1228 531 
z
" id="DejaVuSans-32" transform="scale(0.015625)"/>
       </defs>
       <use transform="translate(0 0.765625)" xlink:href="#DejaVuSans-31"/>
       <use transform="translate(63.623047 0.765625)" xlink:href="#DejaVuSans-30"/>
       <use transform="translate(128.203125 39.046875)scale(0.7)" xlink:href="#DejaVuSans-2212"/>
       <use transform="translate(186.855469 39.046875)scale(0.7)" xlink:href="#DejaVuSans-32"/>
      </g>
     </g>
    </g>
    <g id="ytick_3">
     <g id="line2d_5">
      <g>
       <use style="stroke:#000000;stroke-width:0.8;" x="57.6" xlink:href="#ma957827279" y="150.3239"/>
      </g>
     </g>
     <g id="text_5">
      <!-- $\mathdefault{10^{-1}}$ -->
      <g transform="translate(27.1 154.123119)scale(0.1 -0.1)">
       <use transform="translate(0 0.684375)" xlink:href="#DejaVuSans-31"/>
       <use transform="translate(63.623047 0.684375)" xlink:href="#DejaVuSans-30"/>
       <use transform="translate(128.203125 38.965625)scale(0.7)" xlink:href="#DejaVuSans-2212"/>
       <use transform="translate(186.855469 38.965625)scale(0.7)" xlink:href="#DejaVuSans-31"/>
      </g>
     </g>
    </g>
    <g id="ytick_4">
     <g id="line2d_6">
      <g>
       <use style="stroke:#000000;stroke-width:0.8;" x="57.6" xlink:href="#ma957827279" y="95.89795"/>
      </g>
     </g>
     <g id="text_6">
      <!-- $\mathdefault{10^{0}}$ -->
      <g transform="translate(33 99.697169)scale(0.1 -0.1)">
       <use transform="translate(0 0.765625)" xlink:href="#DejaVuSans-31"/>
       <use transform="translate(63.623047 0.765625)" xlink:href="#DejaVuSans-30"/>
       <use transform="translate(128.203125 39.046875)scale(0.7)" xlink:href="#DejaVuSans-30"/>
      </g>
     </g>
    </g>
    <g id="ytick_5">
     <g id="line2d_7">
      <g>
       <use style="stroke:#000000;stroke-width:0.8;" x="57.6" xlink:href="#ma957827279" y="41.472"/>
      </g>
     </g>
     <g id="text_7">
      <!-- $\mathdefault{10^{1}}$ -->
      <g transform="translate(33 45.271219)scale(0.1 -0.1)">
       <use transform="translate(0 0.684375)" xlink:href="#DejaVuSans-31"/>
       <use transform="translate(63.623047 0.684375)" xlink:href="#DejaVuSans-30"/>
       <use transform="translate(128.203125 38.965625)scale(0.7)" xlink:href="#DejaVuSans-31"/>
      </g>
     </g>
    </g>
    <g id="ytick_6">
     <g id="line2d_8">
      <defs>
       <path d="M 0 0 
L -2 0 
" id="mf94317c0b3" style="stroke:#000000;stroke-width:0.6;"/>
      </defs>
      <g>
       <use style="stroke:#000000;stroke-width:0.6;" x="57.6" xlink:href="#mf94317c0b3" y="297.217907"/>
      </g>
     </g>
    </g>
    <g id="ytick_7">
     <g id="line2d_9">
      <g>
       <use style="stroke:#000000;stroke-width:0.6;" x="57.6" xlink:href="#mf94317c0b3" y="287.633973"/>
      </g>
     </g>
    </g>
    <g id="ytick_8">
     <g id="line2d_10">
      <g>
       <use style="stroke:#000000;stroke-width:0.6;" x="57.6" xlink:href="#mf94317c0b3" y="280.834064"/>
      </g>
     </g>
    </g>
    <g id="ytick_9">
     <g id="line2d_11">
      <g>
       <use style="stroke:#000000;stroke-width:0.6;" x="57.6" xlink:href="#mf94317c0b3" y="275.559644"/>
      </g>
     </g>
    </g>
    <g id="ytick_10">
     <g id="line2d_12">
      <g>
       <use style="stroke:#000000;stroke-width:0.6;" x="57.6" xlink:href="#mf94317c0b3" y="271.25013"/>
      </g>
     </g>
    </g>
    <g id="ytick_11">
     <g id="line2d_13">
      <g>
       <use style="stroke:#000000;stroke-width:0.6;" x="57.6" xlink:href="#mf94317c0b3" y="267.606487"/>
      </g>
     </g>
    </g>
    <g id="ytick_12">
     <g id="line2d_14">
      <g>
       <use style="stroke:#000000;stroke-width:0.6;" x="57.6" xlink:href="#mf94317c0b3" y="264.45022"/>
      </g>
     </g>
    </g>
    <g id="ytick_13">
     <g id="line2d_15">
      <g>
       <use style="stroke:#000000;stroke-width:0.6;" x="57.6" xlink:href="#mf94317c0b3" y="261.666196"/>
      </g>
     </g>
    </g>
    <g id="ytick_14">
     <g id="line2d_16">
      <g>
       <use style="stroke:#000000;stroke-width:0.6;" x="57.6" xlink:href="#mf94317c0b3" y="242.791957"/>
      </g>
     </g>
    </g>
    <g id="ytick_15">
     <g id="line2d_17">
      <g>
       <use style="stroke:#000000;stroke-width:0.6;" x="57.6" xlink:href="#mf94317c0b3" y="233.208023"/>
      </g>
     </g>
    </g>
    <g id="ytick_16">
     <g id="line2d_18">
      <g>
       <use style="stroke:#000000;stroke-width:0.6;" x="57.6" xlink:href="#mf94317c0b3" y="226.408114"/>
      </g>
     </g>
    </g>
    <g id="ytick_17">
     <g id="line2d_19">
      <g>
       <use style="stroke:#000000;stroke-width:0.6;" x="57.6" xlink:href="#mf94317c0b3" y="221.133694"/>
      </g>
     </g>
    </g>
    <g id="ytick_18">
     <g id="line2d_20">
      <g>
       <use style="stroke:#000000;stroke-width:0.6;" x="57.6" xlink:href="#mf94317c0b3" y="216.82418"/>
      </g>
     </g>
    </g>
    <g id="ytick_19">
     <g id="line2d_21">
      <g>
       <use style="stroke:#000000;stroke-width:0.6;" x="57.6" xlink:href="#mf94317c0b3" y="213.180537"/>
      </g>
     </g>
    </g>
    <g id="ytick_20">
     <g id="line2d_22">
      <g>
       <use style="stroke:#000000;stroke-width:0.6;" x="57.6" xlink:href="#mf94317c0b3" y="210.02427"/>
      </g>
     </g>
    </g>
    <g id="ytick_21">
     <g id="line2d_23">
      <g>
       <use style="stroke:#000000;stroke-width:0.6;" x="57.6" xlink:href="#mf94317c0b3" y="207.240246"/>
      </g>
     </g>
    </g>
    <g id="ytick_22">
     <g id="line2d_24">
      <g>
       <use style="stroke:#000000;stroke-width:0.6;" x="57.6" xlink:href="#mf94317c0b3" y="188.366007"/>
      </g>
     </g>
    </g>
    <g id="ytick_23">
     <g id="line2d_25">
      <g>
       <use style="stroke:#000000;stroke-width:0.6;" x="57.6" xlink:href="#mf94317c0b3" y="178.782073"/>
      </g>
     </g>
    </g>
    <g id="ytick_24">
     <g id="line2d_26">
      <g>
       <use style="stroke:#000000;stroke-width:0.6;" x="57.6" xlink:href="#mf94317c0b3" y="171.982164"/>
      </g>
     </g>
    </g>
    <g id="ytick_25">
     <g id="line2d_27">
      <g>
       <use style="stroke:#000000;stroke-width:0.6;" x="57.6" xlink:href="#mf94317c0b3" y="166.707744"/>
      </g>
     </g>
    </g>
    <g id="ytick_26">
     <g id="line2d_28">
      <g>
       <use style="stroke:#000000;stroke-width:0.6;" x="57.6" xlink:href="#mf94317c0b3" y="162.398229"/>
      </g>
     </g>
    </g>
    <g id="ytick_27">
     <g id="line2d_29">
      <g>
       <use style="stroke:#000000;stroke-width:0.6;" x="57.6" xlink:href="#mf94317c0b3" y="158.754587"/>
      </g>
     </g>
    </g>
    <g id="ytick_28">
     <g id="line2d_30">
      <g>
       <use style="stroke:#000000;stroke-width:0.6;" x="57.6" xlink:href="#mf94317c0b3" y="155.59832"/>
      </g>
     </g>
    </g>
    <g id="ytick_29">
     <g id="line2d_31">
      <g>
       <use style="stroke:#000000;stroke-width:0.6;" x="57.6" xlink:href="#mf94317c0b3" y="152.814295"/>
      </g>
     </g>
    </g>
    <g id="ytick_30">
     <g id="line2d_32">
      <g>
       <use style="stroke:#000000;stroke-width:0.6;" x="57.6" xlink:href="#mf94317c0b3" y="133.940057"/>
      </g>
     </g>
    </g>
    <g id="ytick_31">
     <g id="line2d_33">
      <g>
       <use style="stroke:#000000;stroke-width:0.6;" x="57.6" xlink:href="#mf94317c0b3" y="124.356123"/>
      </g>
     </g>
    </g>
    <g id="ytick_32">
     <g id="line2d_34">
      <g>
       <use style="stroke:#000000;stroke-width:0.6;" x="57.6" xlink:href="#mf94317c0b3" y="117.556213"/>
      </g>
     </g>
    </g>
    <g id="ytick_33">
     <g id="line2d_35">
      <g>
       <use style="stroke:#000000;stroke-width:0.6;" x="57.6" xlink:href="#mf94317c0b3" y="112.281794"/>
      </g>
     </g>
    </g>
    <g id="ytick_34">
     <g id="line2d_36">
      <g>
       <use style="stroke:#000000;stroke-width:0.6;" x="57.6" xlink:href="#mf94317c0b3" y="107.972279"/>
      </g>
     </g>
    </g>
    <g id="ytick_35">
     <g id="line2d_37">
      <g>
       <use style="stroke:#000000;stroke-width:0.6;" x="57.6" xlink:href="#mf94317c0b3" y="104.328637"/>
      </g>
     </g>
    </g>
    <g id="ytick_36">
     <g id="line2d_38">
      <g>
       <use style="stroke:#000000;stroke-width:0.6;" x="57.6" xlink:href="#mf94317c0b3" y="101.17237"/>
      </g>
     </g>
    </g>
    <g id="ytick_37">
     <g id="line2d_39">
      <g>
       <use style="stroke:#000000;stroke-width:0.6;" x="57.6" xlink:href="#mf94317c0b3" y="98.388345"/>
      </g>
     </g>
    </g>
    <g id="ytick_38">
     <g id="line2d_40">
      <g>
       <use style="stroke:#000000;stroke-width:0.6;" x="57.6" xlink:href="#mf94317c0b3" y="79.514107"/>
      </g>
     </g>
    </g>
    <g id="ytick_39">
     <g id="line2d_41">
      <g>
       <use style="stroke:#000000;stroke-width:0.6;" x="57.6" xlink:href="#mf94317c0b3" y="69.930173"/>
      </g>
     </g>
    </g>
    <g id="ytick_40">
     <g id="line2d_42">
      <g>
       <use style="stroke:#000000;stroke-width:0.6;" x="57.6" xlink:href="#mf94317c0b3" y="63.130263"/>
      </g>
     </g>
    </g>
    <g id="ytick_41">
     <g id="line2d_43">
      <g>
       <use style="stroke:#000000;stroke-width:0.6;" x="57.6" xlink:href="#mf94317c0b3" y="57.855844"/>
      </g>
     </g>
    </g>
    <g id="ytick_42">
     <g id="line2d_44">
      <g>
       <use style="stroke:#000000;stroke-width:0.6;" x="57.6" xlink:href="#mf94317c0b3" y="53.546329"/>
      </g>
     </g>
    </g>
    <g id="ytick_43">
     <g id="line2d_45">
      <g>
       <use style="stroke:#000000;stroke-width:0.6;" x="57.6" xlink:href="#mf94317c0b3" y="49.902686"/>
      </g>
     </g>
    </g>
    <g id="ytick_44">
     <g id="line2d_46">
      <g>
       <use style="stroke:#000000;stroke-width:0.6;" x="57.6" xlink:href="#mf94317c0b3" y="46.74642"/>
      </g>
     </g>
    </g>
    <g id="ytick_45">
     <g id="line2d_47">
      <g>
       <use style="stroke:#000000;stroke-width:0.6;" x="57.6" xlink:href="#mf94317c0b3" y="43.962395"/>
      </g>
     </g>
    </g>
    <g id="text_8">
     <!-- Computational time (s) -->
     <g transform="translate(20.812344 238.107141)rotate(-90)scale(0.11 -0.11)">
      <defs>
       <path d="M 4122 4306 
L 4122 3641 
Q 3803 3938 3442 4084 
Q 3081 4231 2675 4231 
Q 1875 4231 1450 3742 
Q 1025 3253 1025 2328 
Q 1025 1406 1450 917 
Q 1875 428 2675 428 
Q 3081 428 3442 575 
Q 3803 722 4122 1019 
L 4122 359 
Q 3791 134 3420 21 
Q 3050 -91 2638 -91 
Q 1578 -91 968 557 
Q 359 1206 359 2328 
Q 359 3453 968 4101 
Q 1578 4750 2638 4750 
Q 3056 4750 3426 4639 
Q 3797 4528 4122 4306 
z
" id="DejaVuSans-43" transform="scale(0.015625)"/>
       <path d="M 3328 2828 
Q 3544 3216 3844 3400 
Q 4144 3584 4550 3584 
Q 5097 3584 5394 3201 
Q 5691 2819 5691 2113 
L 5691 0 
L 5113 0 
L 5113 2094 
Q 5113 2597 4934 2840 
Q 4756 3084 4391 3084 
Q 3944 3084 3684 2787 
Q 3425 2491 3425 1978 
L 3425 0 
L 2847 0 
L 2847 2094 
Q 2847 2600 2669 2842 
Q 2491 3084 2119 3084 
Q 1678 3084 1418 2786 
Q 1159 2488 1159 1978 
L 1159 0 
L 581 0 
L 581 3500 
L 1159 3500 
L 1159 2956 
Q 1356 3278 1631 3431 
Q 1906 3584 2284 3584 
Q 2666 3584 2933 3390 
Q 3200 3197 3328 2828 
z
" id="DejaVuSans-6d" transform="scale(0.015625)"/>
       <path d="M 544 1381 
L 544 3500 
L 1119 3500 
L 1119 1403 
Q 1119 906 1312 657 
Q 1506 409 1894 409 
Q 2359 409 2629 706 
Q 2900 1003 2900 1516 
L 2900 3500 
L 3475 3500 
L 3475 0 
L 2900 0 
L 2900 538 
Q 2691 219 2414 64 
Q 2138 -91 1772 -91 
Q 1169 -91 856 284 
Q 544 659 544 1381 
z
M 1991 3584 
L 1991 3584 
z
" id="DejaVuSans-75" transform="scale(0.015625)"/>
       <path d="M 603 3500 
L 1178 3500 
L 1178 0 
L 603 0 
L 603 3500 
z
M 603 4863 
L 1178 4863 
L 1178 4134 
L 603 4134 
L 603 4863 
z
" id="DejaVuSans-69" transform="scale(0.015625)"/>
       <path d="M 3513 2113 
L 3513 0 
L 2938 0 
L 2938 2094 
Q 2938 2591 2744 2837 
Q 2550 3084 2163 3084 
Q 1697 3084 1428 2787 
Q 1159 2491 1159 1978 
L 1159 0 
L 581 0 
L 581 3500 
L 1159 3500 
L 1159 2956 
Q 1366 3272 1645 3428 
Q 1925 3584 2291 3584 
Q 2894 3584 3203 3211 
Q 3513 2838 3513 2113 
z
" id="DejaVuSans-6e" transform="scale(0.015625)"/>
       <path d="M 603 4863 
L 1178 4863 
L 1178 0 
L 603 0 
L 603 4863 
z
" id="DejaVuSans-6c" transform="scale(0.015625)"/>
       <path d="M 1984 4856 
Q 1566 4138 1362 3434 
Q 1159 2731 1159 2009 
Q 1159 1288 1364 580 
Q 1569 -128 1984 -844 
L 1484 -844 
Q 1016 -109 783 600 
Q 550 1309 550 2009 
Q 550 2706 781 3412 
Q 1013 4119 1484 4856 
L 1984 4856 
z
" id="DejaVuSans-28" transform="scale(0.015625)"/>
       <path d="M 513 4856 
L 1013 4856 
Q 1481 4119 1714 3412 
Q 1947 2706 1947 2009 
Q 1947 1309 1714 600 
Q 1481 -109 1013 -844 
L 513 -844 
Q 928 -128 1133 580 
Q 1338 1288 1338 2009 
Q 1338 2731 1133 3434 
Q 928 4138 513 4856 
z
" id="DejaVuSans-29" transform="scale(0.015625)"/>
      </defs>
      <use xlink:href="#DejaVuSans-43"/>
      <use x="69.824219" xlink:href="#DejaVuSans-6f"/>
      <use x="131.005859" xlink:href="#DejaVuSans-6d"/>
      <use x="228.417969" xlink:href="#DejaVuSans-70"/>
      <use x="291.894531" xlink:href="#DejaVuSans-75"/>
      <use x="355.273438" xlink:href="#DejaVuSans-74"/>
      <use x="394.482422" xlink:href="#DejaVuSans-61"/>
      <use x="455.761719" xlink:href="#DejaVuSans-74"/>
      <use x="494.970703" xlink:href="#DejaVuSans-69"/>
      <use x="522.753906" xlink:href="#DejaVuSans-6f"/>
      <use x="583.935547" xlink:href="#DejaVuSans-6e"/>
      <use x="647.314453" xlink:href="#DejaVuSans-61"/>
      <use x="708.59375" xlink:href="#DejaVuSans-6c"/>
      <use x="736.376953" xlink:href="#DejaVuSans-20"/>
      <use x="768.164062" xlink:href="#DejaVuSans-74"/>
      <use x="807.373047" xlink:href="#DejaVuSans-69"/>
      <use x="835.15625" xlink:href="#DejaVuSans-6d"/>
      <use x="932.568359" xlink:href="#DejaVuSans-65"/>
      <use x="994.091797" xlink:href="#DejaVuSans-20"/>
      <use x="1025.878906" xlink:href="#DejaVuSans-28"/>
      <use x="1064.892578" xlink:href="#DejaVuSans-73"/>
      <use x="1116.992188" xlink:href="#DejaVuSans-29"/>
     </g>
    </g>
   </g>
   <g id="LineCollection_1">
    <path clip-path="url(#pf09f18502e)" d="M 97.022338 93.389531 
L 97.022338 87.98767 
" style="fill:none;stroke:#000000;stroke-width:1.5;"/>
    <path clip-path="url(#pf09f18502e)" d="M 282.539221 111.787213 
L 282.539221 108.150999 
" style="fill:none;stroke:#000000;stroke-width:1.5;"/>
   </g>
   <g id="LineCollection_2">
    <path clip-path="url(#pf09f18502e)" d="M 143.401558 346.6 
L 143.401558 133.445039 
" style="fill:none;stroke:#000000;stroke-width:1.5;"/>
    <path clip-path="url(#pf09f18502e)" d="M 328.918442 346.6 
L 328.918442 154.949458 
" style="fill:none;stroke:#000000;stroke-width:1.5;"/>
   </g>
   <g id="LineCollection_3">
    <path clip-path="url(#pf09f18502e)" d="M 189.780779 295.517208 
L 189.780779 279.929949 
" style="fill:none;stroke:#000000;stroke-width:1.5;"/>
    <path clip-path="url(#pf09f18502e)" d="M 375.297662 297.127032 
L 375.297662 280.748752 
" style="fill:none;stroke:#000000;stroke-width:1.5;"/>
   </g>
   <g id="line2d_48">
    <defs>
     <path d="M 10 0 
L -10 -0 
" id="m45fed99d81" style="stroke:#000000;"/>
    </defs>
    <g clip-path="url(#pf09f18502e)">
     <use style="stroke:#000000;" x="97.022338" xlink:href="#m45fed99d81" y="93.389531"/>
     <use style="stroke:#000000;" x="282.539221" xlink:href="#m45fed99d81" y="111.787213"/>
    </g>
   </g>
   <g id="line2d_49">
    <g clip-path="url(#pf09f18502e)">
     <use style="stroke:#000000;" x="97.022338" xlink:href="#m45fed99d81" y="87.98767"/>
     <use style="stroke:#000000;" x="282.539221" xlink:href="#m45fed99d81" y="108.150999"/>
    </g>
   </g>
   <g id="line2d_50">
    <g clip-path="url(#pf09f18502e)"/>
   </g>
   <g id="line2d_51">
    <g clip-path="url(#pf09f18502e)">
     <use style="stroke:#000000;" x="143.401558" xlink:href="#m45fed99d81" y="133.445039"/>
     <use style="stroke:#000000;" x="328.918442" xlink:href="#m45fed99d81" y="154.949458"/>
    </g>
   </g>
   <g id="line2d_52">
    <g clip-path="url(#pf09f18502e)">
     <use style="stroke:#000000;" x="189.780779" xlink:href="#m45fed99d81" y="295.517208"/>
     <use style="stroke:#000000;" x="375.297662" xlink:href="#m45fed99d81" y="297.127032"/>
    </g>
   </g>
   <g id="line2d_53">
    <g clip-path="url(#pf09f18502e)">
     <use style="stroke:#000000;" x="189.780779" xlink:href="#m45fed99d81" y="279.929949"/>
     <use style="stroke:#000000;" x="375.297662" xlink:href="#m45fed99d81" y="280.748752"/>
    </g>
   </g>
   <g id="patch_9">
    <path d="M 57.6 307.584 
L 57.6 41.472 
" style="fill:none;stroke:#000000;stroke-linecap:square;stroke-linejoin:miter;stroke-width:0.8;"/>
   </g>
   <g id="patch_10">
    <path d="M 414.72 307.584 
L 414.72 41.472 
" style="fill:none;stroke:#000000;stroke-linecap:square;stroke-linejoin:miter;stroke-width:0.8;"/>
   </g>
   <g id="patch_11">
    <path d="M 57.6 307.584 
L 414.72 307.584 
" style="fill:none;stroke:#000000;stroke-linecap:square;stroke-linejoin:miter;stroke-width:0.8;"/>
   </g>
   <g id="patch_12">
    <path d="M 57.6 41.472 
L 414.72 41.472 
" style="fill:none;stroke:#000000;stroke-linecap:square;stroke-linejoin:miter;stroke-width:0.8;"/>
   </g>
   <g id="legend_1">
    <g id="patch_13">
     <path d="M 239.245 93.506375 
L 407.72 93.506375 
Q 409.72 93.506375 409.72 91.506375 
L 409.72 48.472 
Q 409.72 46.472 407.72 46.472 
L 239.245 46.472 
Q 237.245 46.472 237.245 48.472 
L 237.245 91.506375 
Q 237.245 93.506375 239.245 93.506375 
z
" style="fill:#ffffff;opacity:0.8;stroke:#cccccc;stroke-linejoin:miter;"/>
    </g>
    <g id="patch_14">
     <path d="M 241.245 58.070438 
L 261.245 58.070438 
L 261.245 51.070438 
L 241.245 51.070438 
z
" style="fill:#e182fd;opacity:0.5;"/>
    </g>
    <g id="text_9">
     <!-- run time (no compilation) -->
     <g transform="translate(269.245 58.070438)scale(0.1 -0.1)">
      <use xlink:href="#DejaVuSans-72"/>
      <use x="41.113281" xlink:href="#DejaVuSans-75"/>
      <use x="104.492188" xlink:href="#DejaVuSans-6e"/>
      <use x="167.871094" xlink:href="#DejaVuSans-20"/>
      <use x="199.658203" xlink:href="#DejaVuSans-74"/>
      <use x="238.867188" xlink:href="#DejaVuSans-69"/>
      <use x="266.650391" xlink:href="#DejaVuSans-6d"/>
      <use x="364.0625" xlink:href="#DejaVuSans-65"/>
      <use x="425.585938" xlink:href="#DejaVuSans-20"/>
      <use x="457.373047" xlink:href="#DejaVuSans-28"/>
      <use x="496.386719" xlink:href="#DejaVuSans-6e"/>
      <use x="559.765625" xlink:href="#DejaVuSans-6f"/>
      <use x="620.947266" xlink:href="#DejaVuSans-20"/>
      <use x="652.734375" xlink:href="#DejaVuSans-63"/>
      <use x="707.714844" xlink:href="#DejaVuSans-6f"/>
      <use x="768.896484" xlink:href="#DejaVuSans-6d"/>
      <use x="866.308594" xlink:href="#DejaVuSans-70"/>
      <use x="929.785156" xlink:href="#DejaVuSans-69"/>
      <use x="957.568359" xlink:href="#DejaVuSans-6c"/>
      <use x="985.351562" xlink:href="#DejaVuSans-61"/>
      <use x="1046.630859" xlink:href="#DejaVuSans-74"/>
      <use x="1085.839844" xlink:href="#DejaVuSans-69"/>
      <use x="1113.623047" xlink:href="#DejaVuSans-6f"/>
      <use x="1174.804688" xlink:href="#DejaVuSans-6e"/>
      <use x="1238.183594" xlink:href="#DejaVuSans-29"/>
     </g>
    </g>
    <g id="patch_15">
     <path d="M 241.245 72.748563 
L 261.245 72.748563 
L 261.245 65.748563 
L 241.245 65.748563 
z
" style="fill:#6e98f8;opacity:0.5;"/>
    </g>
    <g id="text_10">
     <!-- compile and run time -->
     <g transform="translate(269.245 72.748563)scale(0.1 -0.1)">
      <defs>
       <path d="M 2906 2969 
L 2906 4863 
L 3481 4863 
L 3481 0 
L 2906 0 
L 2906 525 
Q 2725 213 2448 61 
Q 2172 -91 1784 -91 
Q 1150 -91 751 415 
Q 353 922 353 1747 
Q 353 2572 751 3078 
Q 1150 3584 1784 3584 
Q 2172 3584 2448 3432 
Q 2725 3281 2906 2969 
z
M 947 1747 
Q 947 1113 1208 752 
Q 1469 391 1925 391 
Q 2381 391 2643 752 
Q 2906 1113 2906 1747 
Q 2906 2381 2643 2742 
Q 2381 3103 1925 3103 
Q 1469 3103 1208 2742 
Q 947 2381 947 1747 
z
" id="DejaVuSans-64" transform="scale(0.015625)"/>
      </defs>
      <use xlink:href="#DejaVuSans-63"/>
      <use x="54.980469" xlink:href="#DejaVuSans-6f"/>
      <use x="116.162109" xlink:href="#DejaVuSans-6d"/>
      <use x="213.574219" xlink:href="#DejaVuSans-70"/>
      <use x="277.050781" xlink:href="#DejaVuSans-69"/>
      <use x="304.833984" xlink:href="#DejaVuSans-6c"/>
      <use x="332.617188" xlink:href="#DejaVuSans-65"/>
      <use x="394.140625" xlink:href="#DejaVuSans-20"/>
      <use x="425.927734" xlink:href="#DejaVuSans-61"/>
      <use x="487.207031" xlink:href="#DejaVuSans-6e"/>
      <use x="550.585938" xlink:href="#DejaVuSans-64"/>
      <use x="614.0625" xlink:href="#DejaVuSans-20"/>
      <use x="645.849609" xlink:href="#DejaVuSans-72"/>
      <use x="686.962891" xlink:href="#DejaVuSans-75"/>
      <use x="750.341797" xlink:href="#DejaVuSans-6e"/>
      <use x="813.720703" xlink:href="#DejaVuSans-20"/>
      <use x="845.507812" xlink:href="#DejaVuSans-74"/>
      <use x="884.716797" xlink:href="#DejaVuSans-69"/>
      <use x="912.5" xlink:href="#DejaVuSans-6d"/>
      <use x="1009.912109" xlink:href="#DejaVuSans-65"/>
     </g>
    </g>
    <g id="patch_16">
     <path d="M 241.245 87.426688 
L 261.245 87.426688 
L 261.245 80.426688 
L 241.245 80.426688 
z
" style="fill:#4ba89b;opacity:0.5;"/>
    </g>
    <g id="text_11">
     <!-- run time (with compilation) -->
     <g transform="translate(269.245 87.426688)scale(0.1 -0.1)">
      <defs>
       <path d="M 269 3500 
L 844 3500 
L 1563 769 
L 2278 3500 
L 2956 3500 
L 3675 769 
L 4391 3500 
L 4966 3500 
L 4050 0 
L 3372 0 
L 2619 2869 
L 1863 0 
L 1184 0 
L 269 3500 
z
" id="DejaVuSans-77" transform="scale(0.015625)"/>
       <path d="M 3513 2113 
L 3513 0 
L 2938 0 
L 2938 2094 
Q 2938 2591 2744 2837 
Q 2550 3084 2163 3084 
Q 1697 3084 1428 2787 
Q 1159 2491 1159 1978 
L 1159 0 
L 581 0 
L 581 4863 
L 1159 4863 
L 1159 2956 
Q 1366 3272 1645 3428 
Q 1925 3584 2291 3584 
Q 2894 3584 3203 3211 
Q 3513 2838 3513 2113 
z
" id="DejaVuSans-68" transform="scale(0.015625)"/>
      </defs>
      <use xlink:href="#DejaVuSans-72"/>
      <use x="41.113281" xlink:href="#DejaVuSans-75"/>
      <use x="104.492188" xlink:href="#DejaVuSans-6e"/>
      <use x="167.871094" xlink:href="#DejaVuSans-20"/>
      <use x="199.658203" xlink:href="#DejaVuSans-74"/>
      <use x="238.867188" xlink:href="#DejaVuSans-69"/>
      <use x="266.650391" xlink:href="#DejaVuSans-6d"/>
      <use x="364.0625" xlink:href="#DejaVuSans-65"/>
      <use x="425.585938" xlink:href="#DejaVuSans-20"/>
      <use x="457.373047" xlink:href="#DejaVuSans-28"/>
      <use x="496.386719" xlink:href="#DejaVuSans-77"/>
      <use x="578.173828" xlink:href="#DejaVuSans-69"/>
      <use x="605.957031" xlink:href="#DejaVuSans-74"/>
      <use x="645.166016" xlink:href="#DejaVuSans-68"/>
      <use x="708.544922" xlink:href="#DejaVuSans-20"/>
      <use x="740.332031" xlink:href="#DejaVuSans-63"/>
      <use x="795.3125" xlink:href="#DejaVuSans-6f"/>
      <use x="856.494141" xlink:href="#DejaVuSans-6d"/>
      <use x="953.90625" xlink:href="#DejaVuSans-70"/>
      <use x="1017.382812" xlink:href="#DejaVuSans-69"/>
      <use x="1045.166016" xlink:href="#DejaVuSans-6c"/>
      <use x="1072.949219" xlink:href="#DejaVuSans-61"/>
      <use x="1134.228516" xlink:href="#DejaVuSans-74"/>
      <use x="1173.4375" xlink:href="#DejaVuSans-69"/>
      <use x="1201.220703" xlink:href="#DejaVuSans-6f"/>
      <use x="1262.402344" xlink:href="#DejaVuSans-6e"/>
      <use x="1325.78125" xlink:href="#DejaVuSans-29"/>
     </g>
    </g>
   </g>
  </g>
 </g>
 <defs>
  <clipPath id="pf09f18502e">
   <rect height="266.112" width="357.12" x="57.6" y="41.472"/>
  </clipPath>
 </defs>
</svg>
