<?xml version="1.0" encoding="utf-8" standalone="no"?>
<!DOCTYPE svg PUBLIC "-//W3C//DTD SVG 1.1//EN"
  "http://www.w3.org/Graphics/SVG/1.1/DTD/svg11.dtd">
<svg height="345.6pt" version="1.1" viewBox="0 0 460.8 345.6" width="460.8pt" xmlns="http://www.w3.org/2000/svg" xmlns:xlink="http://www.w3.org/1999/xlink">
 <metadata>
  <rdf:RDF xmlns:cc="http://creativecommons.org/ns#" xmlns:dc="http://purl.org/dc/elements/1.1/" xmlns:rdf="http://www.w3.org/1999/02/22-rdf-syntax-ns#">
   <cc:Work>
    <dc:type rdf:resource="http://purl.org/dc/dcmitype/StillImage"/>
    <dc:date>2021-11-18T07:43:26.732912</dc:date>
    <dc:format>image/svg+xml</dc:format>
    <dc:creator>
     <cc:Agent>
      <dc:title>Matplotlib v3.4.3, https://matplotlib.org/</dc:title>
     </cc:Agent>
    </dc:creator>
   </cc:Work>
  </rdf:RDF>
 </metadata>
 <defs>
  <style type="text/css">*{stroke-linecap:butt;stroke-linejoin:round;}</style>
 </defs>
 <g id="figure_1">
  <g id="patch_1">
   <path d="M 0 345.6 
L 460.8 345.6 
L 460.8 0 
L 0 0 
z
" style="fill:#ffffff;"/>
  </g>
  <g id="axes_1">
   <g id="patch_2">
    <path d="M 57.6 307.584 
L 414.72 307.584 
L 414.72 41.472 
L 57.6 41.472 
z
" style="fill:#ffffff;"/>
   </g>
   <g id="matplotlib.axis_1">
    <g id="xtick_1">
     <g id="line2d_1">
      <defs>
       <path d="M 0 0 
L 0 3.5 
" id="m6ed3f27c21" style="stroke:#000000;stroke-width:0.8;"/>
      </defs>
      <g>
       <use style="stroke:#000000;stroke-width:0.8;" x="73.832727" xlink:href="#m6ed3f27c21" y="307.584"/>
      </g>
     </g>
     <g id="text_1">
      <!-- 310.0 -->
      <g transform="translate(59.518665 322.182437)scale(0.1 -0.1)">
       <defs>
        <path d="M 2597 2516 
Q 3050 2419 3304 2112 
Q 3559 1806 3559 1356 
Q 3559 666 3084 287 
Q 2609 -91 1734 -91 
Q 1441 -91 1130 -33 
Q 819 25 488 141 
L 488 750 
Q 750 597 1062 519 
Q 1375 441 1716 441 
Q 2309 441 2620 675 
Q 2931 909 2931 1356 
Q 2931 1769 2642 2001 
Q 2353 2234 1838 2234 
L 1294 2234 
L 1294 2753 
L 1863 2753 
Q 2328 2753 2575 2939 
Q 2822 3125 2822 3475 
Q 2822 3834 2567 4026 
Q 2313 4219 1838 4219 
Q 1578 4219 1281 4162 
Q 984 4106 628 3988 
L 628 4550 
Q 988 4650 1302 4700 
Q 1616 4750 1894 4750 
Q 2613 4750 3031 4423 
Q 3450 4097 3450 3541 
Q 3450 3153 3228 2886 
Q 3006 2619 2597 2516 
z
" id="DejaVuSans-33" transform="scale(0.015625)"/>
        <path d="M 794 531 
L 1825 531 
L 1825 4091 
L 703 3866 
L 703 4441 
L 1819 4666 
L 2450 4666 
L 2450 531 
L 3481 531 
L 3481 0 
L 794 0 
L 794 531 
z
" id="DejaVuSans-31" transform="scale(0.015625)"/>
        <path d="M 2034 4250 
Q 1547 4250 1301 3770 
Q 1056 3291 1056 2328 
Q 1056 1369 1301 889 
Q 1547 409 2034 409 
Q 2525 409 2770 889 
Q 3016 1369 3016 2328 
Q 3016 3291 2770 3770 
Q 2525 4250 2034 4250 
z
M 2034 4750 
Q 2819 4750 3233 4129 
Q 3647 3509 3647 2328 
Q 3647 1150 3233 529 
Q 2819 -91 2034 -91 
Q 1250 -91 836 529 
Q 422 1150 422 2328 
Q 422 3509 836 4129 
Q 1250 4750 2034 4750 
z
" id="DejaVuSans-30" transform="scale(0.015625)"/>
        <path d="M 684 794 
L 1344 794 
L 1344 0 
L 684 0 
L 684 794 
z
" id="DejaVuSans-2e" transform="scale(0.015625)"/>
       </defs>
       <use xlink:href="#DejaVuSans-33"/>
       <use x="63.623047" xlink:href="#DejaVuSans-31"/>
       <use x="127.246094" xlink:href="#DejaVuSans-30"/>
       <use x="190.869141" xlink:href="#DejaVuSans-2e"/>
       <use x="222.65625" xlink:href="#DejaVuSans-30"/>
      </g>
     </g>
    </g>
    <g id="xtick_2">
     <g id="line2d_2">
      <g>
       <use style="stroke:#000000;stroke-width:0.8;" x="114.414545" xlink:href="#m6ed3f27c21" y="307.584"/>
      </g>
     </g>
     <g id="text_2">
      <!-- 312.5 -->
      <g transform="translate(100.100483 322.182437)scale(0.1 -0.1)">
       <defs>
        <path d="M 1228 531 
L 3431 531 
L 3431 0 
L 469 0 
L 469 531 
Q 828 903 1448 1529 
Q 2069 2156 2228 2338 
Q 2531 2678 2651 2914 
Q 2772 3150 2772 3378 
Q 2772 3750 2511 3984 
Q 2250 4219 1831 4219 
Q 1534 4219 1204 4116 
Q 875 4013 500 3803 
L 500 4441 
Q 881 4594 1212 4672 
Q 1544 4750 1819 4750 
Q 2544 4750 2975 4387 
Q 3406 4025 3406 3419 
Q 3406 3131 3298 2873 
Q 3191 2616 2906 2266 
Q 2828 2175 2409 1742 
Q 1991 1309 1228 531 
z
" id="DejaVuSans-32" transform="scale(0.015625)"/>
        <path d="M 691 4666 
L 3169 4666 
L 3169 4134 
L 1269 4134 
L 1269 2991 
Q 1406 3038 1543 3061 
Q 1681 3084 1819 3084 
Q 2600 3084 3056 2656 
Q 3513 2228 3513 1497 
Q 3513 744 3044 326 
Q 2575 -91 1722 -91 
Q 1428 -91 1123 -41 
Q 819 9 494 109 
L 494 744 
Q 775 591 1075 516 
Q 1375 441 1709 441 
Q 2250 441 2565 725 
Q 2881 1009 2881 1497 
Q 2881 1984 2565 2268 
Q 2250 2553 1709 2553 
Q 1456 2553 1204 2497 
Q 953 2441 691 2322 
L 691 4666 
z
" id="DejaVuSans-35" transform="scale(0.015625)"/>
       </defs>
       <use xlink:href="#DejaVuSans-33"/>
       <use x="63.623047" xlink:href="#DejaVuSans-31"/>
       <use x="127.246094" xlink:href="#DejaVuSans-32"/>
       <use x="190.869141" xlink:href="#DejaVuSans-2e"/>
       <use x="222.65625" xlink:href="#DejaVuSans-35"/>
      </g>
     </g>
    </g>
    <g id="xtick_3">
     <g id="line2d_3">
      <g>
       <use style="stroke:#000000;stroke-width:0.8;" x="154.996364" xlink:href="#m6ed3f27c21" y="307.584"/>
      </g>
     </g>
     <g id="text_3">
      <!-- 315.0 -->
      <g transform="translate(140.682301 322.182437)scale(0.1 -0.1)">
       <use xlink:href="#DejaVuSans-33"/>
       <use x="63.623047" xlink:href="#DejaVuSans-31"/>
       <use x="127.246094" xlink:href="#DejaVuSans-35"/>
       <use x="190.869141" xlink:href="#DejaVuSans-2e"/>
       <use x="222.65625" xlink:href="#DejaVuSans-30"/>
      </g>
     </g>
    </g>
    <g id="xtick_4">
     <g id="line2d_4">
      <g>
       <use style="stroke:#000000;stroke-width:0.8;" x="195.578182" xlink:href="#m6ed3f27c21" y="307.584"/>
      </g>
     </g>
     <g id="text_4">
      <!-- 317.5 -->
      <g transform="translate(181.264119 322.182437)scale(0.1 -0.1)">
       <defs>
        <path d="M 525 4666 
L 3525 4666 
L 3525 4397 
L 1831 0 
L 1172 0 
L 2766 4134 
L 525 4134 
L 525 4666 
z
" id="DejaVuSans-37" transform="scale(0.015625)"/>
       </defs>
       <use xlink:href="#DejaVuSans-33"/>
       <use x="63.623047" xlink:href="#DejaVuSans-31"/>
       <use x="127.246094" xlink:href="#DejaVuSans-37"/>
       <use x="190.869141" xlink:href="#DejaVuSans-2e"/>
       <use x="222.65625" xlink:href="#DejaVuSans-35"/>
      </g>
     </g>
    </g>
    <g id="xtick_5">
     <g id="line2d_5">
      <g>
       <use style="stroke:#000000;stroke-width:0.8;" x="236.16" xlink:href="#m6ed3f27c21" y="307.584"/>
      </g>
     </g>
     <g id="text_5">
      <!-- 320.0 -->
      <g transform="translate(221.845938 322.182437)scale(0.1 -0.1)">
       <use xlink:href="#DejaVuSans-33"/>
       <use x="63.623047" xlink:href="#DejaVuSans-32"/>
       <use x="127.246094" xlink:href="#DejaVuSans-30"/>
       <use x="190.869141" xlink:href="#DejaVuSans-2e"/>
       <use x="222.65625" xlink:href="#DejaVuSans-30"/>
      </g>
     </g>
    </g>
    <g id="xtick_6">
     <g id="line2d_6">
      <g>
       <use style="stroke:#000000;stroke-width:0.8;" x="276.741818" xlink:href="#m6ed3f27c21" y="307.584"/>
      </g>
     </g>
     <g id="text_6">
      <!-- 322.5 -->
      <g transform="translate(262.427756 322.182437)scale(0.1 -0.1)">
       <use xlink:href="#DejaVuSans-33"/>
       <use x="63.623047" xlink:href="#DejaVuSans-32"/>
       <use x="127.246094" xlink:href="#DejaVuSans-32"/>
       <use x="190.869141" xlink:href="#DejaVuSans-2e"/>
       <use x="222.65625" xlink:href="#DejaVuSans-35"/>
      </g>
     </g>
    </g>
    <g id="xtick_7">
     <g id="line2d_7">
      <g>
       <use style="stroke:#000000;stroke-width:0.8;" x="317.323636" xlink:href="#m6ed3f27c21" y="307.584"/>
      </g>
     </g>
     <g id="text_7">
      <!-- 325.0 -->
      <g transform="translate(303.009574 322.182437)scale(0.1 -0.1)">
       <use xlink:href="#DejaVuSans-33"/>
       <use x="63.623047" xlink:href="#DejaVuSans-32"/>
       <use x="127.246094" xlink:href="#DejaVuSans-35"/>
       <use x="190.869141" xlink:href="#DejaVuSans-2e"/>
       <use x="222.65625" xlink:href="#DejaVuSans-30"/>
      </g>
     </g>
    </g>
    <g id="xtick_8">
     <g id="line2d_8">
      <g>
       <use style="stroke:#000000;stroke-width:0.8;" x="357.905455" xlink:href="#m6ed3f27c21" y="307.584"/>
      </g>
     </g>
     <g id="text_8">
      <!-- 327.5 -->
      <g transform="translate(343.591392 322.182437)scale(0.1 -0.1)">
       <use xlink:href="#DejaVuSans-33"/>
       <use x="63.623047" xlink:href="#DejaVuSans-32"/>
       <use x="127.246094" xlink:href="#DejaVuSans-37"/>
       <use x="190.869141" xlink:href="#DejaVuSans-2e"/>
       <use x="222.65625" xlink:href="#DejaVuSans-35"/>
      </g>
     </g>
    </g>
    <g id="xtick_9">
     <g id="line2d_9">
      <g>
       <use style="stroke:#000000;stroke-width:0.8;" x="398.487273" xlink:href="#m6ed3f27c21" y="307.584"/>
      </g>
     </g>
     <g id="text_9">
      <!-- 330.0 -->
      <g transform="translate(384.17321 322.182437)scale(0.1 -0.1)">
       <use xlink:href="#DejaVuSans-33"/>
       <use x="63.623047" xlink:href="#DejaVuSans-33"/>
       <use x="127.246094" xlink:href="#DejaVuSans-30"/>
       <use x="190.869141" xlink:href="#DejaVuSans-2e"/>
       <use x="222.65625" xlink:href="#DejaVuSans-30"/>
      </g>
     </g>
    </g>
    <g id="text_10">
     <!-- Temperature (K) -->
     <g transform="translate(191.677031 336.620406)scale(0.11 -0.11)">
      <defs>
       <path d="M -19 4666 
L 3928 4666 
L 3928 4134 
L 2272 4134 
L 2272 0 
L 1638 0 
L 1638 4134 
L -19 4134 
L -19 4666 
z
" id="DejaVuSans-54" transform="scale(0.015625)"/>
       <path d="M 3597 1894 
L 3597 1613 
L 953 1613 
Q 991 1019 1311 708 
Q 1631 397 2203 397 
Q 2534 397 2845 478 
Q 3156 559 3463 722 
L 3463 178 
Q 3153 47 2828 -22 
Q 2503 -91 2169 -91 
Q 1331 -91 842 396 
Q 353 884 353 1716 
Q 353 2575 817 3079 
Q 1281 3584 2069 3584 
Q 2775 3584 3186 3129 
Q 3597 2675 3597 1894 
z
M 3022 2063 
Q 3016 2534 2758 2815 
Q 2500 3097 2075 3097 
Q 1594 3097 1305 2825 
Q 1016 2553 972 2059 
L 3022 2063 
z
" id="DejaVuSans-65" transform="scale(0.015625)"/>
       <path d="M 3328 2828 
Q 3544 3216 3844 3400 
Q 4144 3584 4550 3584 
Q 5097 3584 5394 3201 
Q 5691 2819 5691 2113 
L 5691 0 
L 5113 0 
L 5113 2094 
Q 5113 2597 4934 2840 
Q 4756 3084 4391 3084 
Q 3944 3084 3684 2787 
Q 3425 2491 3425 1978 
L 3425 0 
L 2847 0 
L 2847 2094 
Q 2847 2600 2669 2842 
Q 2491 3084 2119 3084 
Q 1678 3084 1418 2786 
Q 1159 2488 1159 1978 
L 1159 0 
L 581 0 
L 581 3500 
L 1159 3500 
L 1159 2956 
Q 1356 3278 1631 3431 
Q 1906 3584 2284 3584 
Q 2666 3584 2933 3390 
Q 3200 3197 3328 2828 
z
" id="DejaVuSans-6d" transform="scale(0.015625)"/>
       <path d="M 1159 525 
L 1159 -1331 
L 581 -1331 
L 581 3500 
L 1159 3500 
L 1159 2969 
Q 1341 3281 1617 3432 
Q 1894 3584 2278 3584 
Q 2916 3584 3314 3078 
Q 3713 2572 3713 1747 
Q 3713 922 3314 415 
Q 2916 -91 2278 -91 
Q 1894 -91 1617 61 
Q 1341 213 1159 525 
z
M 3116 1747 
Q 3116 2381 2855 2742 
Q 2594 3103 2138 3103 
Q 1681 3103 1420 2742 
Q 1159 2381 1159 1747 
Q 1159 1113 1420 752 
Q 1681 391 2138 391 
Q 2594 391 2855 752 
Q 3116 1113 3116 1747 
z
" id="DejaVuSans-70" transform="scale(0.015625)"/>
       <path d="M 2631 2963 
Q 2534 3019 2420 3045 
Q 2306 3072 2169 3072 
Q 1681 3072 1420 2755 
Q 1159 2438 1159 1844 
L 1159 0 
L 581 0 
L 581 3500 
L 1159 3500 
L 1159 2956 
Q 1341 3275 1631 3429 
Q 1922 3584 2338 3584 
Q 2397 3584 2469 3576 
Q 2541 3569 2628 3553 
L 2631 2963 
z
" id="DejaVuSans-72" transform="scale(0.015625)"/>
       <path d="M 2194 1759 
Q 1497 1759 1228 1600 
Q 959 1441 959 1056 
Q 959 750 1161 570 
Q 1363 391 1709 391 
Q 2188 391 2477 730 
Q 2766 1069 2766 1631 
L 2766 1759 
L 2194 1759 
z
M 3341 1997 
L 3341 0 
L 2766 0 
L 2766 531 
Q 2569 213 2275 61 
Q 1981 -91 1556 -91 
Q 1019 -91 701 211 
Q 384 513 384 1019 
Q 384 1609 779 1909 
Q 1175 2209 1959 2209 
L 2766 2209 
L 2766 2266 
Q 2766 2663 2505 2880 
Q 2244 3097 1772 3097 
Q 1472 3097 1187 3025 
Q 903 2953 641 2809 
L 641 3341 
Q 956 3463 1253 3523 
Q 1550 3584 1831 3584 
Q 2591 3584 2966 3190 
Q 3341 2797 3341 1997 
z
" id="DejaVuSans-61" transform="scale(0.015625)"/>
       <path d="M 1172 4494 
L 1172 3500 
L 2356 3500 
L 2356 3053 
L 1172 3053 
L 1172 1153 
Q 1172 725 1289 603 
Q 1406 481 1766 481 
L 2356 481 
L 2356 0 
L 1766 0 
Q 1100 0 847 248 
Q 594 497 594 1153 
L 594 3053 
L 172 3053 
L 172 3500 
L 594 3500 
L 594 4494 
L 1172 4494 
z
" id="DejaVuSans-74" transform="scale(0.015625)"/>
       <path d="M 544 1381 
L 544 3500 
L 1119 3500 
L 1119 1403 
Q 1119 906 1312 657 
Q 1506 409 1894 409 
Q 2359 409 2629 706 
Q 2900 1003 2900 1516 
L 2900 3500 
L 3475 3500 
L 3475 0 
L 2900 0 
L 2900 538 
Q 2691 219 2414 64 
Q 2138 -91 1772 -91 
Q 1169 -91 856 284 
Q 544 659 544 1381 
z
M 1991 3584 
L 1991 3584 
z
" id="DejaVuSans-75" transform="scale(0.015625)"/>
       <path id="DejaVuSans-20" transform="scale(0.015625)"/>
       <path d="M 1984 4856 
Q 1566 4138 1362 3434 
Q 1159 2731 1159 2009 
Q 1159 1288 1364 580 
Q 1569 -128 1984 -844 
L 1484 -844 
Q 1016 -109 783 600 
Q 550 1309 550 2009 
Q 550 2706 781 3412 
Q 1013 4119 1484 4856 
L 1984 4856 
z
" id="DejaVuSans-28" transform="scale(0.015625)"/>
       <path d="M 628 4666 
L 1259 4666 
L 1259 2694 
L 3353 4666 
L 4166 4666 
L 1850 2491 
L 4331 0 
L 3500 0 
L 1259 2247 
L 1259 0 
L 628 0 
L 628 4666 
z
" id="DejaVuSans-4b" transform="scale(0.015625)"/>
       <path d="M 513 4856 
L 1013 4856 
Q 1481 4119 1714 3412 
Q 1947 2706 1947 2009 
Q 1947 1309 1714 600 
Q 1481 -109 1013 -844 
L 513 -844 
Q 928 -128 1133 580 
Q 1338 1288 1338 2009 
Q 1338 2731 1133 3434 
Q 928 4138 513 4856 
z
" id="DejaVuSans-29" transform="scale(0.015625)"/>
      </defs>
      <use xlink:href="#DejaVuSans-54"/>
      <use x="44.083984" xlink:href="#DejaVuSans-65"/>
      <use x="105.607422" xlink:href="#DejaVuSans-6d"/>
      <use x="203.019531" xlink:href="#DejaVuSans-70"/>
      <use x="266.496094" xlink:href="#DejaVuSans-65"/>
      <use x="328.019531" xlink:href="#DejaVuSans-72"/>
      <use x="369.132812" xlink:href="#DejaVuSans-61"/>
      <use x="430.412109" xlink:href="#DejaVuSans-74"/>
      <use x="469.621094" xlink:href="#DejaVuSans-75"/>
      <use x="533" xlink:href="#DejaVuSans-72"/>
      <use x="571.863281" xlink:href="#DejaVuSans-65"/>
      <use x="633.386719" xlink:href="#DejaVuSans-20"/>
      <use x="665.173828" xlink:href="#DejaVuSans-28"/>
      <use x="704.1875" xlink:href="#DejaVuSans-4b"/>
      <use x="769.763672" xlink:href="#DejaVuSans-29"/>
     </g>
    </g>
   </g>
   <g id="matplotlib.axis_2">
    <g id="ytick_1">
     <g id="line2d_10">
      <defs>
       <path d="M 0 0 
L -3.5 0 
" id="m4c65ae86bd" style="stroke:#000000;stroke-width:0.8;"/>
      </defs>
      <g>
       <use style="stroke:#000000;stroke-width:0.8;" x="57.6" xlink:href="#m4c65ae86bd" y="307.584"/>
      </g>
     </g>
     <g id="text_11">
      <!-- 0 -->
      <g transform="translate(44.2375 311.383219)scale(0.1 -0.1)">
       <use xlink:href="#DejaVuSans-30"/>
      </g>
     </g>
    </g>
    <g id="ytick_2">
     <g id="line2d_11">
      <g>
       <use style="stroke:#000000;stroke-width:0.8;" x="57.6" xlink:href="#m4c65ae86bd" y="274.32"/>
      </g>
     </g>
     <g id="text_12">
      <!-- 50 -->
      <g transform="translate(37.875 278.119219)scale(0.1 -0.1)">
       <use xlink:href="#DejaVuSans-35"/>
       <use x="63.623047" xlink:href="#DejaVuSans-30"/>
      </g>
     </g>
    </g>
    <g id="ytick_3">
     <g id="line2d_12">
      <g>
       <use style="stroke:#000000;stroke-width:0.8;" x="57.6" xlink:href="#m4c65ae86bd" y="241.056"/>
      </g>
     </g>
     <g id="text_13">
      <!-- 100 -->
      <g transform="translate(31.5125 244.855219)scale(0.1 -0.1)">
       <use xlink:href="#DejaVuSans-31"/>
       <use x="63.623047" xlink:href="#DejaVuSans-30"/>
       <use x="127.246094" xlink:href="#DejaVuSans-30"/>
      </g>
     </g>
    </g>
    <g id="ytick_4">
     <g id="line2d_13">
      <g>
       <use style="stroke:#000000;stroke-width:0.8;" x="57.6" xlink:href="#m4c65ae86bd" y="207.792"/>
      </g>
     </g>
     <g id="text_14">
      <!-- 150 -->
      <g transform="translate(31.5125 211.591219)scale(0.1 -0.1)">
       <use xlink:href="#DejaVuSans-31"/>
       <use x="63.623047" xlink:href="#DejaVuSans-35"/>
       <use x="127.246094" xlink:href="#DejaVuSans-30"/>
      </g>
     </g>
    </g>
    <g id="ytick_5">
     <g id="line2d_14">
      <g>
       <use style="stroke:#000000;stroke-width:0.8;" x="57.6" xlink:href="#m4c65ae86bd" y="174.528"/>
      </g>
     </g>
     <g id="text_15">
      <!-- 200 -->
      <g transform="translate(31.5125 178.327219)scale(0.1 -0.1)">
       <use xlink:href="#DejaVuSans-32"/>
       <use x="63.623047" xlink:href="#DejaVuSans-30"/>
       <use x="127.246094" xlink:href="#DejaVuSans-30"/>
      </g>
     </g>
    </g>
    <g id="ytick_6">
     <g id="line2d_15">
      <g>
       <use style="stroke:#000000;stroke-width:0.8;" x="57.6" xlink:href="#m4c65ae86bd" y="141.264"/>
      </g>
     </g>
     <g id="text_16">
      <!-- 250 -->
      <g transform="translate(31.5125 145.063219)scale(0.1 -0.1)">
       <use xlink:href="#DejaVuSans-32"/>
       <use x="63.623047" xlink:href="#DejaVuSans-35"/>
       <use x="127.246094" xlink:href="#DejaVuSans-30"/>
      </g>
     </g>
    </g>
    <g id="ytick_7">
     <g id="line2d_16">
      <g>
       <use style="stroke:#000000;stroke-width:0.8;" x="57.6" xlink:href="#m4c65ae86bd" y="108"/>
      </g>
     </g>
     <g id="text_17">
      <!-- 300 -->
      <g transform="translate(31.5125 111.799219)scale(0.1 -0.1)">
       <use xlink:href="#DejaVuSans-33"/>
       <use x="63.623047" xlink:href="#DejaVuSans-30"/>
       <use x="127.246094" xlink:href="#DejaVuSans-30"/>
      </g>
     </g>
    </g>
    <g id="ytick_8">
     <g id="line2d_17">
      <g>
       <use style="stroke:#000000;stroke-width:0.8;" x="57.6" xlink:href="#m4c65ae86bd" y="74.736"/>
      </g>
     </g>
     <g id="text_18">
      <!-- 350 -->
      <g transform="translate(31.5125 78.535219)scale(0.1 -0.1)">
       <use xlink:href="#DejaVuSans-33"/>
       <use x="63.623047" xlink:href="#DejaVuSans-35"/>
       <use x="127.246094" xlink:href="#DejaVuSans-30"/>
      </g>
     </g>
    </g>
    <g id="ytick_9">
     <g id="line2d_18">
      <g>
       <use style="stroke:#000000;stroke-width:0.8;" x="57.6" xlink:href="#m4c65ae86bd" y="41.472"/>
      </g>
     </g>
     <g id="text_19">
      <!-- 400 -->
      <g transform="translate(31.5125 45.271219)scale(0.1 -0.1)">
       <defs>
        <path d="M 2419 4116 
L 825 1625 
L 2419 1625 
L 2419 4116 
z
M 2253 4666 
L 3047 4666 
L 3047 1625 
L 3713 1625 
L 3713 1100 
L 3047 1100 
L 3047 0 
L 2419 0 
L 2419 1100 
L 313 1100 
L 313 1709 
L 2253 4666 
z
" id="DejaVuSans-34" transform="scale(0.015625)"/>
       </defs>
       <use xlink:href="#DejaVuSans-34"/>
       <use x="63.623047" xlink:href="#DejaVuSans-30"/>
       <use x="127.246094" xlink:href="#DejaVuSans-30"/>
      </g>
     </g>
    </g>
    <g id="text_20">
     <!-- K value -->
     <g transform="translate(25.224844 194.906359)rotate(-90)scale(0.11 -0.11)">
      <defs>
       <path d="M 191 3500 
L 800 3500 
L 1894 563 
L 2988 3500 
L 3597 3500 
L 2284 0 
L 1503 0 
L 191 3500 
z
" id="DejaVuSans-76" transform="scale(0.015625)"/>
       <path d="M 603 4863 
L 1178 4863 
L 1178 0 
L 603 0 
L 603 4863 
z
" id="DejaVuSans-6c" transform="scale(0.015625)"/>
      </defs>
      <use xlink:href="#DejaVuSans-4b"/>
      <use x="65.576172" xlink:href="#DejaVuSans-20"/>
      <use x="97.363281" xlink:href="#DejaVuSans-76"/>
      <use x="156.542969" xlink:href="#DejaVuSans-61"/>
      <use x="217.822266" xlink:href="#DejaVuSans-6c"/>
      <use x="245.605469" xlink:href="#DejaVuSans-75"/>
      <use x="308.984375" xlink:href="#DejaVuSans-65"/>
     </g>
    </g>
   </g>
   <g id="line2d_19">
    <path clip-path="url(#p3f2265d39c)" d="M 73.832727 149.645087 
L 85.027712 150.90524 
L 96.222696 152.14876 
L 107.41768 153.375824 
L 118.612665 154.58661 
L 129.807649 155.781289 
L 141.002633 156.960029 
L 152.197618 158.122997 
L 163.392602 159.270354 
L 174.587586 160.402258 
L 185.782571 161.518865 
L 196.977555 162.620325 
L 208.172539 163.706788 
L 219.367524 164.778397 
L 230.562508 165.835295 
L 241.757492 166.877618 
L 252.952476 167.9055 
L 264.147461 168.919074 
L 275.342445 169.918465 
L 286.537429 170.903799 
L 297.732414 171.875194 
L 308.927398 172.832769 
L 320.122382 173.776636 
L 331.317367 174.706905 
L 342.512351 175.623683 
L 353.707335 176.527071 
L 364.90232 177.41717 
L 376.097304 178.294073 
L 387.292288 179.157873 
L 398.487273 180.008657 
" style="fill:none;stroke:#e182fd;stroke-linecap:square;stroke-width:1.5;"/>
   </g>
   <g id="line2d_20">
    <path clip-path="url(#p3f2265d39c)" d="M 73.832727 304.433075 
L 85.027712 304.410649 
L 96.222696 304.388178 
L 107.41768 304.365661 
L 118.612665 304.343098 
L 129.807649 304.320487 
L 141.002633 304.297828 
L 152.197618 304.275119 
L 163.392602 304.25236 
L 174.587586 304.229548 
L 185.782571 304.206683 
L 196.977555 304.183764 
L 208.172539 304.160789 
L 219.367524 304.137756 
L 230.562508 304.114664 
L 241.757492 304.091511 
L 252.952476 304.068296 
L 264.147461 304.045017 
L 275.342445 304.021673 
L 286.537429 303.99826 
L 297.732414 303.974778 
L 308.927398 303.951223 
L 320.122382 303.927595 
L 331.317367 303.90389 
L 342.512351 303.880107 
L 353.707335 303.856243 
L 364.90232 303.832295 
L 376.097304 303.80826 
L 387.292288 303.784137 
L 398.487273 303.759922 
" style="fill:none;stroke:#6e98f8;stroke-linecap:square;stroke-width:1.5;"/>
   </g>
   <g id="line2d_21">
    <path clip-path="url(#p3f2265d39c)" d="M 73.832727 307.578623 
L 85.027712 307.578449 
L 96.222696 307.57827 
L 107.41768 307.578087 
L 118.612665 307.577898 
L 129.807649 307.577705 
L 141.002633 307.577506 
L 152.197618 307.577302 
L 163.392602 307.577093 
L 174.587586 307.576879 
L 185.782571 307.576659 
L 196.977555 307.576433 
L 208.172539 307.576202 
L 219.367524 307.575965 
L 230.562508 307.575722 
L 241.757492 307.575472 
L 252.952476 307.575217 
L 264.147461 307.574955 
L 275.342445 307.574687 
L 286.537429 307.574412 
L 297.732414 307.574131 
L 308.927398 307.573843 
L 320.122382 307.573548 
L 331.317367 307.573245 
L 342.512351 307.572936 
L 353.707335 307.572619 
L 364.90232 307.572295 
L 376.097304 307.571963 
L 387.292288 307.571624 
L 398.487273 307.571276 
" style="fill:none;stroke:#4ba89b;stroke-linecap:square;stroke-width:1.5;"/>
   </g>
   <g id="line2d_22">
    <path clip-path="url(#p3f2265d39c)" d="M 73.832727 96.496687 
L 85.027712 98.861174 
L 96.222696 101.18663 
L 107.41768 103.473748 
L 118.612665 105.723209 
L 129.807649 107.935675 
L 141.002633 110.111795 
L 152.197618 112.252204 
L 163.392602 114.35752 
L 174.587586 116.428348 
L 185.782571 118.46528 
L 196.977555 120.468893 
L 208.172539 122.439751 
L 219.367524 124.378407 
L 230.562508 126.285397 
L 241.757492 128.161248 
L 252.952476 130.006474 
L 264.147461 131.821576 
L 275.342445 133.607044 
L 286.537429 135.363355 
L 297.732414 137.090977 
L 308.927398 138.790364 
L 320.122382 140.461961 
L 331.317367 142.106202 
L 342.512351 143.723509 
L 353.707335 145.314296 
L 364.90232 146.878964 
L 376.097304 148.417905 
L 387.292288 149.931502 
L 398.487273 151.420126 
" style="fill:none;stroke:#9424b3;stroke-linecap:square;stroke-width:1.5;"/>
   </g>
   <g id="line2d_23">
    <path clip-path="url(#p3f2265d39c)" d="M 73.832727 307.582639 
L 85.027712 307.582589 
L 96.222696 307.582537 
L 107.41768 307.582484 
L 118.612665 307.582429 
L 129.807649 307.582372 
L 141.002633 307.582314 
L 152.197618 307.582254 
L 163.392602 307.582192 
L 174.587586 307.582128 
L 185.782571 307.582062 
L 196.977555 307.581994 
L 208.172539 307.581924 
L 219.367524 307.581853 
L 230.562508 307.581779 
L 241.757492 307.581702 
L 252.952476 307.581624 
L 264.147461 307.581543 
L 275.342445 307.58146 
L 286.537429 307.581375 
L 297.732414 307.581287 
L 308.927398 307.581197 
L 320.122382 307.581104 
L 331.317367 307.581008 
L 342.512351 307.58091 
L 353.707335 307.580809 
L 364.90232 307.580706 
L 376.097304 307.580599 
L 387.292288 307.58049 
L 398.487273 307.580377 
" style="fill:none;stroke:#3855c9;stroke-linecap:square;stroke-width:1.5;"/>
   </g>
   <g id="line2d_24">
    <path clip-path="url(#p3f2265d39c)" d="M 73.832727 274.116307 
L 85.027712 274.249643 
L 96.222696 274.381515 
L 107.41768 274.511922 
L 118.612665 274.640865 
L 129.807649 274.768343 
L 141.002633 274.894357 
L 152.197618 275.018907 
L 163.392602 275.141991 
L 174.587586 275.263608 
L 185.782571 275.383758 
L 196.977555 275.502439 
L 208.172539 275.61965 
L 219.367524 275.735388 
L 230.562508 275.849651 
L 241.757492 275.962437 
L 252.952476 276.073742 
L 264.147461 276.183563 
L 275.342445 276.291897 
L 286.537429 276.398739 
L 297.732414 276.504085 
L 308.927398 276.607931 
L 320.122382 276.71027 
L 331.317367 276.811098 
L 342.512351 276.910408 
L 353.707335 277.008194 
L 364.90232 277.104449 
L 376.097304 277.199165 
L 387.292288 277.292334 
L 398.487273 277.383947 
" style="fill:none;stroke:#27695c;stroke-linecap:square;stroke-width:1.5;"/>
   </g>
   <g id="line2d_25">
    <path clip-path="url(#p3f2265d39c)" d="M 73.832727 227.345763 
L 85.027712 227.753776 
L 96.222696 228.157163 
L 107.41768 228.555933 
L 118.612665 228.950099 
L 129.807649 229.339668 
L 141.002633 229.724651 
L 152.197618 230.105056 
L 163.392602 230.480891 
L 174.587586 230.852163 
L 185.782571 231.218877 
L 196.977555 231.58104 
L 208.172539 231.938656 
L 219.367524 232.291728 
L 230.562508 232.64026 
L 241.757492 232.984253 
L 252.952476 233.323708 
L 264.147461 233.658626 
L 275.342445 233.989004 
L 286.537429 234.31484 
L 297.732414 234.636133 
L 308.927398 234.952876 
L 320.122382 235.265064 
L 331.317367 235.572692 
L 342.512351 235.875749 
L 353.707335 236.174228 
L 364.90232 236.468117 
L 376.097304 236.757405 
L 387.292288 237.042077 
L 398.487273 237.322119 
" style="fill:none;stroke:#efc0fd;stroke-linecap:square;stroke-width:1.5;"/>
   </g>
   <g id="line2d_26">
    <defs>
     <path d="M 0 3 
C 0.795609 3 1.55874 2.683901 2.12132 2.12132 
C 2.683901 1.55874 3 0.795609 3 0 
C 3 -0.795609 2.683901 -1.55874 2.12132 -2.12132 
C 1.55874 -2.683901 0.795609 -3 0 -3 
C -0.795609 -3 -1.55874 -2.683901 -2.12132 -2.12132 
C -2.683901 -1.55874 -3 -0.795609 -3 0 
C -3 0.795609 -2.683901 1.55874 -2.12132 2.12132 
C -1.55874 2.683901 -0.795609 3 0 3 
z
" id="me7ac405101" style="stroke:#e182fd;"/>
    </defs>
    <g clip-path="url(#p3f2265d39c)">
     <use style="fill:#e182fd;stroke:#e182fd;" x="73.832727" xlink:href="#me7ac405101" y="156.344567"/>
     <use style="fill:#e182fd;stroke:#e182fd;" x="154.996364" xlink:href="#me7ac405101" y="165.09566"/>
     <use style="fill:#e182fd;stroke:#e182fd;" x="236.16" xlink:href="#me7ac405101" y="173.017814"/>
     <use style="fill:#e182fd;stroke:#e182fd;" x="317.323636" xlink:href="#me7ac405101" y="180.173566"/>
     <use style="fill:#e182fd;stroke:#e182fd;" x="398.487273" xlink:href="#me7ac405101" y="186.616803"/>
    </g>
   </g>
   <g id="line2d_27">
    <defs>
     <path d="M 0 3 
C 0.795609 3 1.55874 2.683901 2.12132 2.12132 
C 2.683901 1.55874 3 0.795609 3 0 
C 3 -0.795609 2.683901 -1.55874 2.12132 -2.12132 
C 1.55874 -2.683901 0.795609 -3 0 -3 
C -0.795609 -3 -1.55874 -2.683901 -2.12132 -2.12132 
C -2.683901 -1.55874 -3 -0.795609 -3 0 
C -3 0.795609 -2.683901 1.55874 -2.12132 2.12132 
C -1.55874 2.683901 -0.795609 3 0 3 
z
" id="mcf7eac4b25" style="stroke:#6e98f8;"/>
    </defs>
    <g clip-path="url(#p3f2265d39c)">
     <use style="fill:#6e98f8;stroke:#6e98f8;" x="73.832727" xlink:href="#mcf7eac4b25" y="304.367012"/>
     <use style="fill:#6e98f8;stroke:#6e98f8;" x="154.996364" xlink:href="#mcf7eac4b25" y="304.208995"/>
     <use style="fill:#6e98f8;stroke:#6e98f8;" x="236.16" xlink:href="#mcf7eac4b25" y="304.048868"/>
     <use style="fill:#6e98f8;stroke:#6e98f8;" x="317.323636" xlink:href="#mcf7eac4b25" y="303.886121"/>
     <use style="fill:#6e98f8;stroke:#6e98f8;" x="398.487273" xlink:href="#mcf7eac4b25" y="303.72006"/>
    </g>
   </g>
   <g id="line2d_28">
    <defs>
     <path d="M 0 3 
C 0.795609 3 1.55874 2.683901 2.12132 2.12132 
C 2.683901 1.55874 3 0.795609 3 0 
C 3 -0.795609 2.683901 -1.55874 2.12132 -2.12132 
C 1.55874 -2.683901 0.795609 -3 0 -3 
C -0.795609 -3 -1.55874 -2.683901 -2.12132 -2.12132 
C -2.683901 -1.55874 -3 -0.795609 -3 0 
C -3 0.795609 -2.683901 1.55874 -2.12132 2.12132 
C -1.55874 2.683901 -0.795609 3 0 3 
z
" id="m3b029ee844" style="stroke:#4ba89b;"/>
    </defs>
    <g clip-path="url(#p3f2265d39c)">
     <use style="fill:#4ba89b;stroke:#4ba89b;" x="73.832727" xlink:href="#m3b029ee844" y="307.579021"/>
     <use style="fill:#4ba89b;stroke:#4ba89b;" x="154.996364" xlink:href="#m3b029ee844" y="307.577726"/>
     <use style="fill:#4ba89b;stroke:#4ba89b;" x="236.16" xlink:href="#m3b029ee844" y="307.576161"/>
     <use style="fill:#4ba89b;stroke:#4ba89b;" x="317.323636" xlink:href="#m3b029ee844" y="307.574283"/>
     <use style="fill:#4ba89b;stroke:#4ba89b;" x="398.487273" xlink:href="#m3b029ee844" y="307.572046"/>
    </g>
   </g>
   <g id="line2d_29">
    <defs>
     <path d="M 0 3 
C 0.795609 3 1.55874 2.683901 2.12132 2.12132 
C 2.683901 1.55874 3 0.795609 3 0 
C 3 -0.795609 2.683901 -1.55874 2.12132 -2.12132 
C 1.55874 -2.683901 0.795609 -3 0 -3 
C -0.795609 -3 -1.55874 -2.683901 -2.12132 -2.12132 
C -2.683901 -1.55874 -3 -0.795609 -3 0 
C -3 0.795609 -2.683901 1.55874 -2.12132 2.12132 
C -1.55874 2.683901 -0.795609 3 0 3 
z
" id="ma6869ab89d" style="stroke:#9424b3;"/>
    </defs>
    <g clip-path="url(#p3f2265d39c)">
     <use style="fill:#9424b3;stroke:#9424b3;" x="73.832727" xlink:href="#ma6869ab89d" y="98.991444"/>
     <use style="fill:#9424b3;stroke:#9424b3;" x="154.996364" xlink:href="#ma6869ab89d" y="115.2123"/>
     <use style="fill:#9424b3;stroke:#9424b3;" x="236.16" xlink:href="#ma6869ab89d" y="129.606299"/>
     <use style="fill:#9424b3;stroke:#9424b3;" x="317.323636" xlink:href="#ma6869ab89d" y="142.388323"/>
     <use style="fill:#9424b3;stroke:#9424b3;" x="398.487273" xlink:href="#ma6869ab89d" y="153.739996"/>
    </g>
   </g>
   <g id="line2d_30">
    <defs>
     <path d="M 0 3 
C 0.795609 3 1.55874 2.683901 2.12132 2.12132 
C 2.683901 1.55874 3 0.795609 3 0 
C 3 -0.795609 2.683901 -1.55874 2.12132 -2.12132 
C 1.55874 -2.683901 0.795609 -3 0 -3 
C -0.795609 -3 -1.55874 -2.683901 -2.12132 -2.12132 
C -2.683901 -1.55874 -3 -0.795609 -3 0 
C -3 0.795609 -2.683901 1.55874 -2.12132 2.12132 
C -1.55874 2.683901 -0.795609 3 0 3 
z
" id="m9899f09e70" style="stroke:#3855c9;"/>
    </defs>
    <g clip-path="url(#p3f2265d39c)">
     <use style="fill:#3855c9;stroke:#3855c9;" x="73.832727" xlink:href="#m9899f09e70" y="307.582695"/>
     <use style="fill:#3855c9;stroke:#3855c9;" x="154.996364" xlink:href="#m9899f09e70" y="307.582308"/>
     <use style="fill:#3855c9;stroke:#3855c9;" x="236.16" xlink:href="#m9899f09e70" y="307.581825"/>
     <use style="fill:#3855c9;stroke:#3855c9;" x="317.323636" xlink:href="#m9899f09e70" y="307.58123"/>
     <use style="fill:#3855c9;stroke:#3855c9;" x="398.487273" xlink:href="#m9899f09e70" y="307.580501"/>
    </g>
   </g>
   <g id="line2d_31">
    <defs>
     <path d="M 0 3 
C 0.795609 3 1.55874 2.683901 2.12132 2.12132 
C 2.683901 1.55874 3 0.795609 3 0 
C 3 -0.795609 2.683901 -1.55874 2.12132 -2.12132 
C 1.55874 -2.683901 0.795609 -3 0 -3 
C -0.795609 -3 -1.55874 -2.683901 -2.12132 -2.12132 
C -2.683901 -1.55874 -3 -0.795609 -3 0 
C -3 0.795609 -2.683901 1.55874 -2.12132 2.12132 
C -1.55874 2.683901 -0.795609 3 0 3 
z
" id="mb279cf9c87" style="stroke:#27695c;"/>
    </defs>
    <g clip-path="url(#p3f2265d39c)">
     <use style="fill:#27695c;stroke:#27695c;" x="73.832727" xlink:href="#mb279cf9c87" y="272.872949"/>
     <use style="fill:#27695c;stroke:#27695c;" x="154.996364" xlink:href="#mb279cf9c87" y="273.916042"/>
     <use style="fill:#27695c;stroke:#27695c;" x="236.16" xlink:href="#mb279cf9c87" y="274.874977"/>
     <use style="fill:#27695c;stroke:#27695c;" x="317.323636" xlink:href="#mb279cf9c87" y="275.750019"/>
     <use style="fill:#27695c;stroke:#27695c;" x="398.487273" xlink:href="#mb279cf9c87" y="276.540638"/>
    </g>
   </g>
   <g id="line2d_32">
    <defs>
     <path d="M 0 3 
C 0.795609 3 1.55874 2.683901 2.12132 2.12132 
C 2.683901 1.55874 3 0.795609 3 0 
C 3 -0.795609 2.683901 -1.55874 2.12132 -2.12132 
C 1.55874 -2.683901 0.795609 -3 0 -3 
C -0.795609 -3 -1.55874 -2.683901 -2.12132 -2.12132 
C -2.683901 -1.55874 -3 -0.795609 -3 0 
C -3 0.795609 -2.683901 1.55874 -2.12132 2.12132 
C -1.55874 2.683901 -0.795609 3 0 3 
z
" id="m0bc025e312" style="stroke:#efc0fd;"/>
    </defs>
    <g clip-path="url(#p3f2265d39c)">
     <use style="fill:#efc0fd;stroke:#efc0fd;" x="73.832727" xlink:href="#m0bc025e312" y="225.601546"/>
     <use style="fill:#efc0fd;stroke:#efc0fd;" x="154.996364" xlink:href="#m0bc025e312" y="228.67647"/>
     <use style="fill:#efc0fd;stroke:#efc0fd;" x="236.16" xlink:href="#m0bc025e312" y="231.497257"/>
     <use style="fill:#efc0fd;stroke:#efc0fd;" x="317.323636" xlink:href="#m0bc025e312" y="234.067234"/>
     <use style="fill:#efc0fd;stroke:#efc0fd;" x="398.487273" xlink:href="#m0bc025e312" y="236.389061"/>
    </g>
   </g>
   <g id="patch_3">
    <path d="M 57.6 307.584 
L 57.6 41.472 
" style="fill:none;stroke:#000000;stroke-linecap:square;stroke-linejoin:miter;stroke-width:0.8;"/>
   </g>
   <g id="patch_4">
    <path d="M 414.72 307.584 
L 414.72 41.472 
" style="fill:none;stroke:#000000;stroke-linecap:square;stroke-linejoin:miter;stroke-width:0.8;"/>
   </g>
   <g id="patch_5">
    <path d="M 57.6 307.584 
L 414.72 307.584 
" style="fill:none;stroke:#000000;stroke-linecap:square;stroke-linejoin:miter;stroke-width:0.8;"/>
   </g>
   <g id="patch_6">
    <path d="M 57.6 41.472 
L 414.72 41.472 
" style="fill:none;stroke:#000000;stroke-linecap:square;stroke-linejoin:miter;stroke-width:0.8;"/>
   </g>
   <g id="legend_1">
    <g id="patch_7">
     <path d="M 369.565313 107.920125 
L 410.52 107.920125 
Q 411.72 107.920125 411.72 106.720125 
L 411.72 45.672 
Q 411.72 44.472 410.52 44.472 
L 369.565313 44.472 
Q 368.365313 44.472 368.365313 45.672 
L 368.365313 106.720125 
Q 368.365313 107.920125 369.565313 107.920125 
z
" style="fill:#ffffff;opacity:0.8;stroke:#cccccc;stroke-linejoin:miter;"/>
    </g>
    <g id="line2d_33">
     <path d="M 370.765312 49.331062 
L 382.765312 49.331062 
" style="fill:none;stroke:#e182fd;stroke-linecap:square;stroke-width:1.5;"/>
    </g>
    <g id="line2d_34"/>
    <g id="text_21">
     <!-- CO -->
     <g transform="translate(387.565313 51.431062)scale(0.06 -0.06)">
      <defs>
       <path d="M 4122 4306 
L 4122 3641 
Q 3803 3938 3442 4084 
Q 3081 4231 2675 4231 
Q 1875 4231 1450 3742 
Q 1025 3253 1025 2328 
Q 1025 1406 1450 917 
Q 1875 428 2675 428 
Q 3081 428 3442 575 
Q 3803 722 4122 1019 
L 4122 359 
Q 3791 134 3420 21 
Q 3050 -91 2638 -91 
Q 1578 -91 968 557 
Q 359 1206 359 2328 
Q 359 3453 968 4101 
Q 1578 4750 2638 4750 
Q 3056 4750 3426 4639 
Q 3797 4528 4122 4306 
z
" id="DejaVuSans-43" transform="scale(0.015625)"/>
       <path d="M 2522 4238 
Q 1834 4238 1429 3725 
Q 1025 3213 1025 2328 
Q 1025 1447 1429 934 
Q 1834 422 2522 422 
Q 3209 422 3611 934 
Q 4013 1447 4013 2328 
Q 4013 3213 3611 3725 
Q 3209 4238 2522 4238 
z
M 2522 4750 
Q 3503 4750 4090 4092 
Q 4678 3434 4678 2328 
Q 4678 1225 4090 567 
Q 3503 -91 2522 -91 
Q 1538 -91 948 565 
Q 359 1222 359 2328 
Q 359 3434 948 4092 
Q 1538 4750 2522 4750 
z
" id="DejaVuSans-4f" transform="scale(0.015625)"/>
      </defs>
      <use xlink:href="#DejaVuSans-43"/>
      <use x="69.824219" xlink:href="#DejaVuSans-4f"/>
     </g>
    </g>
    <g id="line2d_35">
     <path d="M 370.765312 58.137937 
L 382.765312 58.137937 
" style="fill:none;stroke:#6e98f8;stroke-linecap:square;stroke-width:1.5;"/>
    </g>
    <g id="line2d_36"/>
    <g id="text_22">
     <!-- CO2 -->
     <g transform="translate(387.565313 60.237937)scale(0.06 -0.06)">
      <use xlink:href="#DejaVuSans-43"/>
      <use x="69.824219" xlink:href="#DejaVuSans-4f"/>
      <use x="148.535156" xlink:href="#DejaVuSans-32"/>
     </g>
    </g>
    <g id="line2d_37">
     <path d="M 370.765312 66.944812 
L 382.765312 66.944812 
" style="fill:none;stroke:#4ba89b;stroke-linecap:square;stroke-width:1.5;"/>
    </g>
    <g id="line2d_38"/>
    <g id="text_23">
     <!-- CH3OH -->
     <g transform="translate(387.565313 69.044812)scale(0.06 -0.06)">
      <defs>
       <path d="M 628 4666 
L 1259 4666 
L 1259 2753 
L 3553 2753 
L 3553 4666 
L 4184 4666 
L 4184 0 
L 3553 0 
L 3553 2222 
L 1259 2222 
L 1259 0 
L 628 0 
L 628 4666 
z
" id="DejaVuSans-48" transform="scale(0.015625)"/>
      </defs>
      <use xlink:href="#DejaVuSans-43"/>
      <use x="69.824219" xlink:href="#DejaVuSans-48"/>
      <use x="145.019531" xlink:href="#DejaVuSans-33"/>
      <use x="208.642578" xlink:href="#DejaVuSans-4f"/>
      <use x="287.353516" xlink:href="#DejaVuSans-48"/>
     </g>
    </g>
    <g id="line2d_39">
     <path d="M 370.765312 75.751688 
L 382.765312 75.751688 
" style="fill:none;stroke:#9424b3;stroke-linecap:square;stroke-width:1.5;"/>
    </g>
    <g id="line2d_40"/>
    <g id="text_24">
     <!-- H2 -->
     <g transform="translate(387.565313 77.851688)scale(0.06 -0.06)">
      <use xlink:href="#DejaVuSans-48"/>
      <use x="75.195312" xlink:href="#DejaVuSans-32"/>
     </g>
    </g>
    <g id="line2d_41">
     <path d="M 370.765312 84.558563 
L 382.765312 84.558563 
" style="fill:none;stroke:#3855c9;stroke-linecap:square;stroke-width:1.5;"/>
    </g>
    <g id="line2d_42"/>
    <g id="text_25">
     <!-- H2O -->
     <g transform="translate(387.565313 86.658563)scale(0.06 -0.06)">
      <use xlink:href="#DejaVuSans-48"/>
      <use x="75.195312" xlink:href="#DejaVuSans-32"/>
      <use x="138.818359" xlink:href="#DejaVuSans-4f"/>
     </g>
    </g>
    <g id="line2d_43">
     <path d="M 370.765312 93.365438 
L 382.765312 93.365438 
" style="fill:none;stroke:#27695c;stroke-linecap:square;stroke-width:1.5;"/>
    </g>
    <g id="line2d_44"/>
    <g id="text_26">
     <!-- CH4 -->
     <g transform="translate(387.565313 95.465438)scale(0.06 -0.06)">
      <use xlink:href="#DejaVuSans-43"/>
      <use x="69.824219" xlink:href="#DejaVuSans-48"/>
      <use x="145.019531" xlink:href="#DejaVuSans-34"/>
     </g>
    </g>
    <g id="line2d_45">
     <path d="M 370.765312 102.172313 
L 382.765312 102.172313 
" style="fill:none;stroke:#efc0fd;stroke-linecap:square;stroke-width:1.5;"/>
    </g>
    <g id="line2d_46"/>
    <g id="text_27">
     <!-- N2 -->
     <g transform="translate(387.565313 104.272312)scale(0.06 -0.06)">
      <defs>
       <path d="M 628 4666 
L 1478 4666 
L 3547 763 
L 3547 4666 
L 4159 4666 
L 4159 0 
L 3309 0 
L 1241 3903 
L 1241 0 
L 628 0 
L 628 4666 
z
" id="DejaVuSans-4e" transform="scale(0.015625)"/>
      </defs>
      <use xlink:href="#DejaVuSans-4e"/>
      <use x="74.804688" xlink:href="#DejaVuSans-32"/>
     </g>
    </g>
   </g>
  </g>
 </g>
 <defs>
  <clipPath id="p3f2265d39c">
   <rect height="266.112" width="357.12" x="57.6" y="41.472"/>
  </clipPath>
 </defs>
</svg>
